<mxfile host="app.diagrams.net" modified="2020-12-04T21:03:54.714Z" agent="5.0 (Macintosh; Intel Mac OS X 10_13_6) AppleWebKit/537.36 (KHTML, like Gecko) Chrome/87.0.4280.67 Safari/537.36" etag="DSX2cBSMy9XN1CF8isKQ" version="13.10.4" type="github" pages="4">
  <diagram id="masebG0VYPJyVEianIFm" name="General">
    <mxGraphModel dx="1497" dy="376" grid="1" gridSize="10" guides="1" tooltips="1" connect="1" arrows="1" fold="1" page="1" pageScale="1" pageWidth="827" pageHeight="1169" math="0" shadow="0">
      <root>
        <mxCell id="0" />
        <mxCell id="1" parent="0" />
        <mxCell id="Nh5QQwun1p5BCpEkRl_I-12" value="" style="edgeStyle=orthogonalEdgeStyle;rounded=0;orthogonalLoop=1;jettySize=auto;html=1;" parent="1" source="Nh5QQwun1p5BCpEkRl_I-2" target="Nh5QQwun1p5BCpEkRl_I-10" edge="1">
          <mxGeometry relative="1" as="geometry" />
        </mxCell>
        <mxCell id="Nh5QQwun1p5BCpEkRl_I-2" value="problem_need_reported" style="rounded=1;whiteSpace=wrap;html=1;" parent="1" vertex="1">
          <mxGeometry x="300" y="380" width="190" height="60" as="geometry" />
        </mxCell>
        <mxCell id="Nh5QQwun1p5BCpEkRl_I-13" value="Yes" style="rounded=0;orthogonalLoop=1;jettySize=auto;html=1;exitX=1;exitY=0.5;exitDx=0;exitDy=0;" parent="1" source="Nh5QQwun1p5BCpEkRl_I-10" edge="1">
          <mxGeometry x="-0.3939" relative="1" as="geometry">
            <mxPoint x="560" y="515" as="targetPoint" />
            <mxPoint as="offset" />
          </mxGeometry>
        </mxCell>
        <mxCell id="Nh5QQwun1p5BCpEkRl_I-14" value="No" style="edgeStyle=orthogonalEdgeStyle;rounded=0;orthogonalLoop=1;jettySize=auto;html=1;" parent="1" source="Nh5QQwun1p5BCpEkRl_I-10" edge="1">
          <mxGeometry x="-0.36" relative="1" as="geometry">
            <mxPoint x="280" y="560" as="targetPoint" />
            <mxPoint as="offset" />
          </mxGeometry>
        </mxCell>
        <mxCell id="Nh5QQwun1p5BCpEkRl_I-10" value="" style="shape=mxgraph.bpmn.shape;html=1;verticalLabelPosition=bottom;labelBackgroundColor=#ffffff;verticalAlign=top;align=center;perimeter=rhombusPerimeter;background=gateway;outlineConnect=0;outline=none;symbol=exclusiveGw;" parent="1" vertex="1">
          <mxGeometry x="370" y="490" width="50" height="50" as="geometry" />
        </mxCell>
        <mxCell id="Nh5QQwun1p5BCpEkRl_I-27" style="edgeStyle=none;rounded=0;orthogonalLoop=1;jettySize=auto;html=1;entryX=0.5;entryY=0;entryDx=0;entryDy=0;" parent="1" source="Nh5QQwun1p5BCpEkRl_I-15" target="Nh5QQwun1p5BCpEkRl_I-28" edge="1">
          <mxGeometry relative="1" as="geometry">
            <mxPoint x="523" y="640" as="targetPoint" />
          </mxGeometry>
        </mxCell>
        <object label="&lt;span style=&quot;color: rgb(34 , 34 , 34) ; font-family: &amp;#34;menlo&amp;#34; , monospace ; font-size: 11px ; text-align: left ; background-color: rgb(255 , 255 , 255)&quot;&gt;error_report[problemTypeId][0]&lt;/span&gt;" id="Nh5QQwun1p5BCpEkRl_I-15">
          <mxCell style="whiteSpace=wrap;html=1;verticalAlign=middle;" parent="1" vertex="1">
            <mxGeometry x="410" y="580" width="226" height="40" as="geometry" />
          </mxCell>
        </object>
        <mxCell id="Nh5QQwun1p5BCpEkRl_I-16" value="" style="shape=mxgraph.bpmn.shape;html=1;verticalLabelPosition=bottom;labelBackgroundColor=#ffffff;verticalAlign=top;align=center;perimeter=ellipsePerimeter;outlineConnect=0;outline=end;symbol=terminate;" parent="1" vertex="1">
          <mxGeometry x="255" y="560" width="50" height="50" as="geometry" />
        </mxCell>
        <mxCell id="Nh5QQwun1p5BCpEkRl_I-113" style="edgeStyle=none;rounded=0;orthogonalLoop=1;jettySize=auto;html=1;" parent="1" source="Nh5QQwun1p5BCpEkRl_I-28" edge="1">
          <mxGeometry relative="1" as="geometry">
            <mxPoint x="523" y="710" as="targetPoint" />
          </mxGeometry>
        </mxCell>
        <mxCell id="Nh5QQwun1p5BCpEkRl_I-28" value="" style="shape=mxgraph.bpmn.shape;html=1;verticalLabelPosition=bottom;labelBackgroundColor=#ffffff;verticalAlign=top;align=center;perimeter=rhombusPerimeter;background=gateway;outlineConnect=0;outline=none;symbol=exclusiveGw;" parent="1" vertex="1">
          <mxGeometry x="502" y="650" width="42" height="40" as="geometry" />
        </mxCell>
        <mxCell id="Nh5QQwun1p5BCpEkRl_I-100" style="edgeStyle=none;rounded=0;orthogonalLoop=1;jettySize=auto;html=1;exitX=1;exitY=0.5;exitDx=0;exitDy=0;" parent="1" source="Nh5QQwun1p5BCpEkRl_I-28" target="Nh5QQwun1p5BCpEkRl_I-28" edge="1">
          <mxGeometry relative="1" as="geometry" />
        </mxCell>
        <mxCell id="Nh5QQwun1p5BCpEkRl_I-101" style="edgeStyle=none;rounded=0;orthogonalLoop=1;jettySize=auto;html=1;exitX=0;exitY=0.5;exitDx=0;exitDy=0;" parent="1" source="Nh5QQwun1p5BCpEkRl_I-28" target="Nh5QQwun1p5BCpEkRl_I-28" edge="1">
          <mxGeometry relative="1" as="geometry" />
        </mxCell>
        <UserObject label="" link="data:page/id,qmWzPx2iZwVkVxFpeL7q" id="Nh5QQwun1p5BCpEkRl_I-111">
          <mxCell style="group" parent="1" vertex="1" connectable="0">
            <mxGeometry x="-162" y="710" width="1900" height="90.00000000000011" as="geometry" />
          </mxCell>
        </UserObject>
        <object label="&lt;span style=&quot;color: rgb(34 , 34 , 34) ; font-family: &amp;#34;menlo&amp;#34; , monospace ; font-size: 11px ; text-align: left ; background-color: rgb(255 , 255 , 255)&quot;&gt;Product Page Functionality&lt;br&gt;     &lt;/span&gt;" id="Nh5QQwun1p5BCpEkRl_I-68">
          <mxCell style="whiteSpace=wrap;html=1;verticalAlign=middle;" parent="Nh5QQwun1p5BCpEkRl_I-111" vertex="1">
            <mxGeometry y="40" width="140" height="50" as="geometry" />
          </mxCell>
        </object>
        <mxCell id="Nh5QQwun1p5BCpEkRl_I-59" value="" style="endArrow=classic;html=1;" parent="Nh5QQwun1p5BCpEkRl_I-111" edge="1">
          <mxGeometry x="205.67" y="-2" width="50" height="50" as="geometry">
            <mxPoint x="245.66999999999996" as="sourcePoint" />
            <mxPoint x="245.66999999999996" y="40" as="targetPoint" />
          </mxGeometry>
        </mxCell>
        <object label="&lt;span style=&quot;color: rgb(34 , 34 , 34) ; font-family: &amp;#34;menlo&amp;#34; , monospace ; font-size: 11px ; text-align: left ; background-color: rgb(255 , 255 , 255)&quot;&gt;Product Inventory, Availability &amp;amp; Pricing&lt;/span&gt;&lt;span style=&quot;color: rgb(34 , 34 , 34) ; font-family: &amp;#34;menlo&amp;#34; , monospace ; font-size: 11px ; text-align: left ; background-color: rgb(255 , 255 , 255)&quot;&gt;&lt;br&gt;     &lt;/span&gt;" id="Nh5QQwun1p5BCpEkRl_I-71">
          <mxCell style="whiteSpace=wrap;html=1;verticalAlign=middle;" parent="Nh5QQwun1p5BCpEkRl_I-111" vertex="1">
            <mxGeometry x="176" y="40" width="140" height="50" as="geometry" />
          </mxCell>
        </object>
        <object label="&lt;br class=&quot;Apple-interchange-newline&quot;&gt;&lt;span style=&quot;color: rgb(34 , 34 , 34) ; font-family: &amp;#34;menlo&amp;#34; , monospace ; font-size: 11px ; text-align: left ; background-color: rgb(255 , 255 , 255)&quot;&gt;Other Product Data&lt;br&gt;     &lt;/span&gt;&lt;span style=&quot;color: rgb(34 , 34 , 34) ; font-family: &amp;#34;menlo&amp;#34; , monospace ; font-size: 11px ; text-align: left ; background-color: rgb(255 , 255 , 255)&quot;&gt;&lt;br&gt;     &lt;/span&gt;" id="Nh5QQwun1p5BCpEkRl_I-76">
          <mxCell style="whiteSpace=wrap;html=1;verticalAlign=middle;" parent="Nh5QQwun1p5BCpEkRl_I-111" vertex="1">
            <mxGeometry x="352" y="40" width="140" height="50" as="geometry" />
          </mxCell>
        </object>
        <mxCell id="Nh5QQwun1p5BCpEkRl_I-77" style="edgeStyle=none;rounded=0;orthogonalLoop=1;jettySize=auto;html=1;entryX=0.5;entryY=0;entryDx=0;entryDy=0;" parent="Nh5QQwun1p5BCpEkRl_I-111" source="Nh5QQwun1p5BCpEkRl_I-76" target="Nh5QQwun1p5BCpEkRl_I-76" edge="1">
          <mxGeometry x="176" as="geometry" />
        </mxCell>
        <mxCell id="Nh5QQwun1p5BCpEkRl_I-79" style="edgeStyle=orthogonalEdgeStyle;rounded=0;orthogonalLoop=1;jettySize=auto;html=1;entryX=0.5;entryY=0;entryDx=0;entryDy=0;" parent="Nh5QQwun1p5BCpEkRl_I-111" target="Nh5QQwun1p5BCpEkRl_I-88" edge="1">
          <mxGeometry x="760" y="15" as="geometry">
            <mxPoint x="1870" as="targetPoint" />
            <mxPoint x="500" as="sourcePoint" />
            <Array as="points">
              <mxPoint x="1830" />
            </Array>
          </mxGeometry>
        </mxCell>
        <object label="&lt;span style=&quot;color: rgb(34 , 34 , 34) ; font-family: &amp;#34;menlo&amp;#34; , monospace ; font-size: 11px ; text-align: left ; background-color: rgb(255 , 255 , 255)&quot;&gt;Department / Category Page &amp;amp; Products on It&lt;/span&gt;&lt;span style=&quot;color: rgb(34 , 34 , 34) ; font-family: &amp;#34;menlo&amp;#34; , monospace ; font-size: 11px ; text-align: left ; background-color: rgb(255 , 255 , 255)&quot;&gt;&lt;br&gt;     &lt;/span&gt;" link="data:page/id,qmWzPx2iZwVkVxFpeL7q" id="Nh5QQwun1p5BCpEkRl_I-80">
          <mxCell style="whiteSpace=wrap;html=1;verticalAlign=middle;" parent="Nh5QQwun1p5BCpEkRl_I-111" vertex="1">
            <mxGeometry x="528" y="40.000000000000114" width="140" height="50" as="geometry" />
          </mxCell>
        </object>
        <object label="&lt;span style=&quot;color: rgb(34 , 34 , 34) ; font-family: &amp;#34;menlo&amp;#34; , monospace ; font-size: 11px ; text-align: left ; background-color: rgb(255 , 255 , 255)&quot;&gt;Brand Page &amp;amp; Products on It&lt;/span&gt;&lt;span style=&quot;color: rgb(34 , 34 , 34) ; font-family: &amp;#34;menlo&amp;#34; , monospace ; font-size: 11px ; text-align: left ; background-color: rgb(255 , 255 , 255)&quot;&gt;&lt;br&gt;     &lt;/span&gt;" id="Nh5QQwun1p5BCpEkRl_I-81">
          <mxCell style="whiteSpace=wrap;html=1;verticalAlign=middle;" parent="Nh5QQwun1p5BCpEkRl_I-111" vertex="1">
            <mxGeometry x="704" y="40.000000000000114" width="140" height="50" as="geometry" />
          </mxCell>
        </object>
        <object label="&lt;span style=&quot;color: rgb(34 , 34 , 34) ; font-family: &amp;#34;menlo&amp;#34; , monospace ; font-size: 11px ; text-align: left ; background-color: rgb(255 , 255 , 255)&quot;&gt;Cart / Checkout&lt;/span&gt;&lt;span style=&quot;color: rgb(34 , 34 , 34) ; font-family: &amp;#34;menlo&amp;#34; , monospace ; font-size: 11px ; text-align: left ; background-color: rgb(255 , 255 , 255)&quot;&gt;&lt;br&gt;     &lt;/span&gt;" link="data:page/id,hB60xQu2snFUlkM0SjLe" id="Nh5QQwun1p5BCpEkRl_I-82">
          <mxCell style="whiteSpace=wrap;html=1;verticalAlign=middle;" parent="Nh5QQwun1p5BCpEkRl_I-111" vertex="1">
            <mxGeometry x="880" y="40" width="140" height="50" as="geometry" />
          </mxCell>
        </object>
        <mxCell id="Nh5QQwun1p5BCpEkRl_I-83" value="" style="endArrow=classic;html=1;entryX=0.5;entryY=0;entryDx=0;entryDy=0;" parent="Nh5QQwun1p5BCpEkRl_I-111" edge="1">
          <mxGeometry x="557.58" y="-2" width="50" height="50" as="geometry">
            <mxPoint x="597.58" as="sourcePoint" />
            <mxPoint x="597.9799999999999" y="40" as="targetPoint" />
            <Array as="points">
              <mxPoint x="598" />
            </Array>
          </mxGeometry>
        </mxCell>
        <object label="&lt;span style=&quot;color: rgb(34 , 34 , 34) ; font-family: &amp;#34;menlo&amp;#34; , monospace ; font-size: 11px ; text-align: left ; background-color: rgb(255 , 255 , 255)&quot;&gt;&lt;br&gt;      My Account (inc Super User)&lt;br&gt;     &lt;/span&gt;&lt;span style=&quot;color: rgb(34 , 34 , 34) ; font-family: &amp;#34;menlo&amp;#34; , monospace ; font-size: 11px ; text-align: left ; background-color: rgb(255 , 255 , 255)&quot;&gt;&lt;br&gt;     &lt;/span&gt;" id="Nh5QQwun1p5BCpEkRl_I-84">
          <mxCell style="whiteSpace=wrap;html=1;verticalAlign=middle;" parent="Nh5QQwun1p5BCpEkRl_I-111" vertex="1">
            <mxGeometry x="1056" y="40" width="140" height="50" as="geometry" />
          </mxCell>
        </object>
        <object label="&lt;span style=&quot;color: rgb(34 , 34 , 34) ; font-family: &amp;#34;menlo&amp;#34; , monospace ; font-size: 11px ; text-align: left ; background-color: rgb(255 , 255 , 255)&quot;&gt;Other Site Functionality&lt;/span&gt;&lt;span style=&quot;color: rgb(34 , 34 , 34) ; font-family: &amp;#34;menlo&amp;#34; , monospace ; font-size: 11px ; text-align: left ; background-color: rgb(255 , 255 , 255)&quot;&gt;&lt;br&gt;     &lt;/span&gt;" id="Nh5QQwun1p5BCpEkRl_I-85">
          <mxCell style="whiteSpace=wrap;html=1;verticalAlign=middle;" parent="Nh5QQwun1p5BCpEkRl_I-111" vertex="1">
            <mxGeometry x="1232" y="40" width="140" height="50" as="geometry" />
          </mxCell>
        </object>
        <object label="&lt;span style=&quot;color: rgb(34 , 34 , 34) ; font-family: &amp;#34;menlo&amp;#34; , monospace ; font-size: 11px ; text-align: left ; background-color: rgb(255 , 255 , 255)&quot;&gt;Compliance&lt;/span&gt;&lt;span style=&quot;color: rgb(34 , 34 , 34) ; font-family: &amp;#34;menlo&amp;#34; , monospace ; font-size: 11px ; text-align: left ; background-color: rgb(255 , 255 , 255)&quot;&gt;&lt;br&gt;     &lt;/span&gt;" id="Nh5QQwun1p5BCpEkRl_I-86">
          <mxCell style="whiteSpace=wrap;html=1;verticalAlign=middle;" parent="Nh5QQwun1p5BCpEkRl_I-111" vertex="1">
            <mxGeometry x="1408" y="40.000000000000114" width="140" height="50" as="geometry" />
          </mxCell>
        </object>
        <object label="&lt;span style=&quot;color: rgb(34 , 34 , 34) ; font-family: &amp;#34;menlo&amp;#34; , monospace ; font-size: 11px ; text-align: left ; background-color: rgb(255 , 255 , 255)&quot;&gt;&lt;br&gt;      Product Update from Catalogue&lt;br&gt;     &lt;/span&gt;&lt;span style=&quot;color: rgb(34 , 34 , 34) ; font-family: &amp;#34;menlo&amp;#34; , monospace ; font-size: 11px ; text-align: left ; background-color: rgb(255 , 255 , 255)&quot;&gt;&lt;br&gt;     &lt;/span&gt;" id="Nh5QQwun1p5BCpEkRl_I-87">
          <mxCell style="whiteSpace=wrap;html=1;verticalAlign=middle;" parent="Nh5QQwun1p5BCpEkRl_I-111" vertex="1">
            <mxGeometry x="1584" y="40.000000000000114" width="140" height="50" as="geometry" />
          </mxCell>
        </object>
        <object label="&lt;span style=&quot;color: rgb(34 , 34 , 34) ; font-family: &amp;#34;menlo&amp;#34; , monospace ; font-size: 11px ; text-align: left ; background-color: rgb(255 , 255 , 255)&quot;&gt;Warranty&lt;br&gt;     &lt;/span&gt;" id="Nh5QQwun1p5BCpEkRl_I-88">
          <mxCell style="whiteSpace=wrap;html=1;verticalAlign=middle;" parent="Nh5QQwun1p5BCpEkRl_I-111" vertex="1">
            <mxGeometry x="1760" y="40" width="140" height="50" as="geometry" />
          </mxCell>
        </object>
        <mxCell id="Nh5QQwun1p5BCpEkRl_I-89" value="" style="endArrow=classic;html=1;entryX=0.5;entryY=0;entryDx=0;entryDy=0;" parent="Nh5QQwun1p5BCpEkRl_I-111" edge="1">
          <mxGeometry x="733.58" y="-2" width="50" height="50" as="geometry">
            <mxPoint x="773.5799999999999" as="sourcePoint" />
            <mxPoint x="773.98" y="40" as="targetPoint" />
          </mxGeometry>
        </mxCell>
        <mxCell id="Nh5QQwun1p5BCpEkRl_I-90" value="" style="endArrow=classic;html=1;entryX=0.5;entryY=0;entryDx=0;entryDy=0;" parent="Nh5QQwun1p5BCpEkRl_I-111" edge="1">
          <mxGeometry x="909.58" y="-2" width="50" height="50" as="geometry">
            <mxPoint x="949.5799999999999" as="sourcePoint" />
            <mxPoint x="949.98" y="40" as="targetPoint" />
          </mxGeometry>
        </mxCell>
        <mxCell id="Nh5QQwun1p5BCpEkRl_I-92" value="" style="endArrow=classic;html=1;entryX=0.5;entryY=0;entryDx=0;entryDy=0;" parent="Nh5QQwun1p5BCpEkRl_I-111" edge="1">
          <mxGeometry x="1085.67" y="-2" width="50" height="50" as="geometry">
            <mxPoint x="1125.6699999999998" as="sourcePoint" />
            <mxPoint x="1126.07" y="40" as="targetPoint" />
          </mxGeometry>
        </mxCell>
        <mxCell id="Nh5QQwun1p5BCpEkRl_I-96" value="" style="endArrow=classic;html=1;" parent="Nh5QQwun1p5BCpEkRl_I-111" edge="1">
          <mxGeometry x="381.66999999999996" y="-2" width="50" height="50" as="geometry">
            <mxPoint x="421.66999999999996" as="sourcePoint" />
            <mxPoint x="421.66999999999996" y="40" as="targetPoint" />
          </mxGeometry>
        </mxCell>
        <mxCell id="Nh5QQwun1p5BCpEkRl_I-97" value="" style="endArrow=classic;html=1;entryX=0.5;entryY=0;entryDx=0;entryDy=0;" parent="Nh5QQwun1p5BCpEkRl_I-111" edge="1">
          <mxGeometry x="1261.67" y="-2" width="50" height="50" as="geometry">
            <mxPoint x="1301.6699999999998" as="sourcePoint" />
            <mxPoint x="1302.07" y="40" as="targetPoint" />
          </mxGeometry>
        </mxCell>
        <mxCell id="Nh5QQwun1p5BCpEkRl_I-98" value="" style="endArrow=classic;html=1;entryX=0.5;entryY=0;entryDx=0;entryDy=0;" parent="Nh5QQwun1p5BCpEkRl_I-111" edge="1">
          <mxGeometry x="1437.67" y="-2" width="50" height="50" as="geometry">
            <mxPoint x="1477.6699999999998" as="sourcePoint" />
            <mxPoint x="1478.07" y="40" as="targetPoint" />
          </mxGeometry>
        </mxCell>
        <mxCell id="Nh5QQwun1p5BCpEkRl_I-99" value="" style="endArrow=classic;html=1;entryX=0.5;entryY=0;entryDx=0;entryDy=0;" parent="Nh5QQwun1p5BCpEkRl_I-111" edge="1">
          <mxGeometry x="1613.67" y="-2" width="50" height="50" as="geometry">
            <mxPoint x="1653.6699999999998" as="sourcePoint" />
            <mxPoint x="1654.07" y="40" as="targetPoint" />
          </mxGeometry>
        </mxCell>
        <mxCell id="Nh5QQwun1p5BCpEkRl_I-110" style="edgeStyle=orthogonalEdgeStyle;rounded=0;orthogonalLoop=1;jettySize=auto;html=1;entryX=0.471;entryY=0.006;entryDx=0;entryDy=0;entryPerimeter=0;" parent="Nh5QQwun1p5BCpEkRl_I-111" edge="1">
          <mxGeometry x="327" y="-25" as="geometry">
            <mxPoint x="65.93999999999994" y="39.29999999999984" as="targetPoint" />
            <mxPoint x="500" as="sourcePoint" />
          </mxGeometry>
        </mxCell>
        <mxCell id="Nh5QQwun1p5BCpEkRl_I-116" value="" style="rounded=0;orthogonalLoop=1;jettySize=auto;html=1;edgeStyle=orthogonalEdgeStyle;" parent="1" source="Nh5QQwun1p5BCpEkRl_I-115" target="Nh5QQwun1p5BCpEkRl_I-15" edge="1">
          <mxGeometry relative="1" as="geometry" />
        </mxCell>
        <mxCell id="Nh5QQwun1p5BCpEkRl_I-118" value="" style="rounded=0;orthogonalLoop=1;jettySize=auto;html=1;edgeStyle=orthogonalEdgeStyle;" parent="1" edge="1">
          <mxGeometry relative="1" as="geometry">
            <mxPoint x="585.0400000000002" y="481.0400000000002" as="sourcePoint" />
            <mxPoint x="623" y="326.03999999999996" as="targetPoint" />
            <Array as="points">
              <mxPoint x="585" y="326" />
            </Array>
          </mxGeometry>
        </mxCell>
        <mxCell id="Nh5QQwun1p5BCpEkRl_I-120" style="edgeStyle=orthogonalEdgeStyle;rounded=0;orthogonalLoop=1;jettySize=auto;html=1;exitX=0.5;exitY=0;exitDx=0;exitDy=0;entryX=0;entryY=0.5;entryDx=0;entryDy=0;" parent="1" source="Nh5QQwun1p5BCpEkRl_I-115" target="Nh5QQwun1p5BCpEkRl_I-119" edge="1">
          <mxGeometry relative="1" as="geometry">
            <mxPoint x="548" y="420" as="sourcePoint" />
          </mxGeometry>
        </mxCell>
        <mxCell id="Nh5QQwun1p5BCpEkRl_I-123" style="edgeStyle=orthogonalEdgeStyle;rounded=0;orthogonalLoop=1;jettySize=auto;html=1;entryX=0;entryY=0.5;entryDx=0;entryDy=0;" parent="1" edge="1">
          <mxGeometry relative="1" as="geometry">
            <mxPoint x="585.0400000000002" y="490.0400000000002" as="sourcePoint" />
            <mxPoint x="623" y="385" as="targetPoint" />
            <Array as="points">
              <mxPoint x="585" y="385" />
            </Array>
          </mxGeometry>
        </mxCell>
        <mxCell id="Nh5QQwun1p5BCpEkRl_I-133" style="edgeStyle=orthogonalEdgeStyle;rounded=0;orthogonalLoop=1;jettySize=auto;html=1;entryX=0;entryY=0.5;entryDx=0;entryDy=0;" parent="1" source="Nh5QQwun1p5BCpEkRl_I-115" target="Nh5QQwun1p5BCpEkRl_I-125" edge="1">
          <mxGeometry relative="1" as="geometry">
            <Array as="points">
              <mxPoint x="585" y="445" />
            </Array>
          </mxGeometry>
        </mxCell>
        <mxCell id="Nh5QQwun1p5BCpEkRl_I-115" value="" style="shape=mxgraph.bpmn.shape;html=1;verticalLabelPosition=bottom;labelBackgroundColor=#ffffff;verticalAlign=top;align=center;perimeter=rhombusPerimeter;background=gateway;outlineConnect=0;outline=none;symbol=parallelGw;" parent="1" vertex="1">
          <mxGeometry x="560" y="490" width="50" height="50" as="geometry" />
        </mxCell>
        <mxCell id="Nh5QQwun1p5BCpEkRl_I-117" value="&lt;span style=&quot;color: rgb(34 , 34 , 34) ; font-family: &amp;#34;menlo&amp;#34; , monospace ; font-size: 11px ; text-align: left&quot;&gt;error_report[priority]&lt;/span&gt;" style="whiteSpace=wrap;html=1;verticalAlign=top;labelBackgroundColor=#ffffff;flipV=1;" parent="1" vertex="1">
          <mxGeometry x="623" y="310" width="215" height="30" as="geometry" />
        </mxCell>
        <mxCell id="Nh5QQwun1p5BCpEkRl_I-119" value="&lt;span style=&quot;color: rgb(34 , 34 , 34) ; font-family: &amp;#34;menlo&amp;#34; , monospace ; font-size: 11px ; text-align: left&quot;&gt;error_report[screenshot]&lt;/span&gt;" style="whiteSpace=wrap;html=1;verticalAlign=top;labelBackgroundColor=#ffffff;flipV=1;" parent="1" vertex="1">
          <mxGeometry x="623" y="250" width="215" height="30" as="geometry" />
        </mxCell>
        <mxCell id="Nh5QQwun1p5BCpEkRl_I-121" value="&lt;span style=&quot;color: rgb(34 , 34 , 34) ; font-family: &amp;#34;menlo&amp;#34; , monospace ; font-size: 11px ; text-align: left&quot;&gt;error_report[caused_return]&lt;/span&gt;" style="whiteSpace=wrap;html=1;verticalAlign=top;labelBackgroundColor=#ffffff;flipV=1;" parent="1" vertex="1">
          <mxGeometry x="623" y="370" width="215" height="30" as="geometry" />
        </mxCell>
        <mxCell id="Nh5QQwun1p5BCpEkRl_I-125" value="&lt;span style=&quot;color: rgb(34 , 34 , 34) ; font-family: &amp;#34;menlo&amp;#34; , monospace ; font-size: 11px ; text-align: left&quot;&gt;error_report[comment]&lt;/span&gt;" style="whiteSpace=wrap;html=1;verticalAlign=top;labelBackgroundColor=#ffffff;flipV=1;" parent="1" vertex="1">
          <mxGeometry x="623" y="430" width="215" height="30" as="geometry" />
        </mxCell>
        <mxCell id="Nh5QQwun1p5BCpEkRl_I-165" style="edgeStyle=none;rounded=0;orthogonalLoop=1;jettySize=auto;html=1;entryX=0.5;entryY=0;entryDx=0;entryDy=0;" parent="1" source="Nh5QQwun1p5BCpEkRl_I-135" target="Nh5QQwun1p5BCpEkRl_I-166" edge="1">
          <mxGeometry relative="1" as="geometry">
            <mxPoint x="-210" y="940" as="targetPoint" />
          </mxGeometry>
        </mxCell>
        <mxCell id="Nh5QQwun1p5BCpEkRl_I-135" value="&lt;span style=&quot;color: rgb(34 , 34 , 34) ; font-family: &amp;#34;menlo&amp;#34; , monospace ; font-size: 11px ; text-align: left ; background-color: rgb(255 , 255 , 255)&quot;&gt;error_report[problemTypeId][1]&lt;/span&gt;" style="whiteSpace=wrap;html=1;" parent="1" vertex="1">
          <mxGeometry x="-320" y="859" width="220" height="40" as="geometry" />
        </mxCell>
        <mxCell id="Nh5QQwun1p5BCpEkRl_I-141" style="rounded=0;orthogonalLoop=1;jettySize=auto;html=1;entryX=0.529;entryY=-0.116;entryDx=0;entryDy=0;entryPerimeter=0;" parent="1" source="Nh5QQwun1p5BCpEkRl_I-71" target="Nh5QQwun1p5BCpEkRl_I-203" edge="1">
          <mxGeometry relative="1" as="geometry">
            <mxPoint x="85" y="1131.4544921875" as="targetPoint" />
          </mxGeometry>
        </mxCell>
        <mxCell id="Nh5QQwun1p5BCpEkRl_I-142" style="edgeStyle=orthogonalEdgeStyle;rounded=0;orthogonalLoop=1;jettySize=auto;html=1;exitX=0.5;exitY=1;exitDx=0;exitDy=0;" parent="1" edge="1">
          <mxGeometry relative="1" as="geometry">
            <mxPoint x="260" y="1425" as="targetPoint" />
            <mxPoint x="260" y="802" as="sourcePoint" />
          </mxGeometry>
        </mxCell>
        <mxCell id="Nh5QQwun1p5BCpEkRl_I-146" style="edgeStyle=orthogonalEdgeStyle;rounded=0;orthogonalLoop=1;jettySize=auto;html=1;" parent="1" source="Nh5QQwun1p5BCpEkRl_I-84" edge="1">
          <mxGeometry relative="1" as="geometry">
            <mxPoint x="1380" y="1086.3636474609375" as="targetPoint" />
          </mxGeometry>
        </mxCell>
        <mxCell id="Nh5QQwun1p5BCpEkRl_I-151" style="edgeStyle=orthogonalEdgeStyle;rounded=0;orthogonalLoop=1;jettySize=auto;html=1;" parent="1" source="Nh5QQwun1p5BCpEkRl_I-85" edge="1">
          <mxGeometry relative="1" as="geometry">
            <mxPoint x="1140" y="840" as="targetPoint" />
          </mxGeometry>
        </mxCell>
        <mxCell id="Nh5QQwun1p5BCpEkRl_I-152" style="edgeStyle=orthogonalEdgeStyle;rounded=0;orthogonalLoop=1;jettySize=auto;html=1;" parent="1" source="Nh5QQwun1p5BCpEkRl_I-86" edge="1">
          <mxGeometry relative="1" as="geometry">
            <mxPoint x="1316" y="840" as="targetPoint" />
          </mxGeometry>
        </mxCell>
        <mxCell id="Nh5QQwun1p5BCpEkRl_I-164" value="" style="edgeStyle=orthogonalEdgeStyle;rounded=0;orthogonalLoop=1;jettySize=auto;html=1;entryX=0.585;entryY=-0.01;entryDx=0;entryDy=0;entryPerimeter=0;" parent="1" source="Nh5QQwun1p5BCpEkRl_I-68" target="Nh5QQwun1p5BCpEkRl_I-135" edge="1">
          <mxGeometry relative="1" as="geometry">
            <Array as="points">
              <mxPoint x="-191" y="775" />
            </Array>
          </mxGeometry>
        </mxCell>
        <mxCell id="Nh5QQwun1p5BCpEkRl_I-174" value="&lt;span style=&quot;color: rgb(34 , 34 , 34) ; font-family: &amp;#34;menlo&amp;#34; , monospace ; font-size: 11px ; text-align: left ; background-color: rgb(255 , 255 , 255)&quot;&gt;Year-Make-Model Selector Error&lt;/span&gt;" style="whiteSpace=wrap;html=1;" parent="1" vertex="1">
          <mxGeometry x="-123" y="1055" width="140" height="55" as="geometry" />
        </mxCell>
        <mxCell id="Nh5QQwun1p5BCpEkRl_I-205" value="" style="group" parent="1" vertex="1" connectable="0">
          <mxGeometry x="-650" y="950" width="508" height="420" as="geometry" />
        </mxCell>
        <mxCell id="Nh5QQwun1p5BCpEkRl_I-166" value="" style="shape=mxgraph.bpmn.shape;html=1;verticalLabelPosition=bottom;labelBackgroundColor=#ffffff;verticalAlign=top;align=center;perimeter=rhombusPerimeter;background=gateway;outlineConnect=0;outline=none;symbol=exclusiveGw;" parent="Nh5QQwun1p5BCpEkRl_I-205" vertex="1">
          <mxGeometry x="415" width="50" height="50" as="geometry" />
        </mxCell>
        <mxCell id="Nh5QQwun1p5BCpEkRl_I-199" style="edgeStyle=elbowEdgeStyle;rounded=0;orthogonalLoop=1;jettySize=auto;elbow=vertical;html=1;" parent="Nh5QQwun1p5BCpEkRl_I-205" source="Nh5QQwun1p5BCpEkRl_I-169" edge="1">
          <mxGeometry relative="1" as="geometry">
            <mxPoint x="290" y="190" as="targetPoint" />
          </mxGeometry>
        </mxCell>
        <mxCell id="Nh5QQwun1p5BCpEkRl_I-169" value="&lt;meta charset=&quot;utf-8&quot;&gt;&lt;span style=&quot;color: rgb(34, 34, 34); font-family: menlo, monospace; font-size: 11px; font-style: normal; font-weight: 400; letter-spacing: normal; text-align: left; text-indent: 0px; text-transform: none; word-spacing: 0px; background-color: rgb(255, 255, 255); display: inline; float: none;&quot;&gt;Other Product Page Functionality Error&lt;/span&gt;" style="whiteSpace=wrap;html=1;" parent="Nh5QQwun1p5BCpEkRl_I-205" vertex="1">
          <mxGeometry x="210" y="107.5" width="160" height="52.5" as="geometry" />
        </mxCell>
        <mxCell id="Nh5QQwun1p5BCpEkRl_I-201" style="edgeStyle=elbowEdgeStyle;rounded=0;orthogonalLoop=1;jettySize=auto;elbow=vertical;html=1;" parent="Nh5QQwun1p5BCpEkRl_I-205" source="Nh5QQwun1p5BCpEkRl_I-171" edge="1">
          <mxGeometry relative="1" as="geometry">
            <mxPoint x="448" y="190" as="targetPoint" />
          </mxGeometry>
        </mxCell>
        <mxCell id="Nh5QQwun1p5BCpEkRl_I-171" value="&lt;span style=&quot;color: rgb(34 , 34 , 34) ; font-family: &amp;#34;menlo&amp;#34; , monospace ; font-size: 11px ; text-align: left ; background-color: rgb(255 , 255 , 255)&quot;&gt;Product Reviews&lt;/span&gt;" style="whiteSpace=wrap;html=1;" parent="Nh5QQwun1p5BCpEkRl_I-205" vertex="1">
          <mxGeometry x="388" y="106.25" width="120" height="53.75" as="geometry" />
        </mxCell>
        <mxCell id="Nh5QQwun1p5BCpEkRl_I-178" style="edgeStyle=orthogonalEdgeStyle;rounded=0;orthogonalLoop=1;jettySize=auto;html=1;entryX=0.43;entryY=-0.058;entryDx=0;entryDy=0;entryPerimeter=0;" parent="Nh5QQwun1p5BCpEkRl_I-205" source="Nh5QQwun1p5BCpEkRl_I-166" target="Nh5QQwun1p5BCpEkRl_I-171" edge="1">
          <mxGeometry relative="1" as="geometry">
            <Array as="points">
              <mxPoint x="440" y="78" />
            </Array>
          </mxGeometry>
        </mxCell>
        <mxCell id="Nh5QQwun1p5BCpEkRl_I-180" style="edgeStyle=orthogonalEdgeStyle;rounded=0;orthogonalLoop=1;jettySize=auto;html=1;exitX=0.5;exitY=1;exitDx=0;exitDy=0;" parent="Nh5QQwun1p5BCpEkRl_I-205" source="Nh5QQwun1p5BCpEkRl_I-171" target="Nh5QQwun1p5BCpEkRl_I-171" edge="1">
          <mxGeometry relative="1" as="geometry" />
        </mxCell>
        <mxCell id="Nh5QQwun1p5BCpEkRl_I-185" value="&lt;span style=&quot;color: rgb(34 , 34 , 34) ; font-family: &amp;#34;menlo&amp;#34; , monospace ; font-size: 11px ; font-style: normal ; font-weight: 400 ; letter-spacing: normal ; text-align: left ; text-indent: 0px ; text-transform: none ; word-spacing: 0px ; background-color: rgb(255 , 255 , 255) ; display: inline ; float: none&quot;&gt;Product Options Error&lt;/span&gt;" style="whiteSpace=wrap;html=1;" parent="Nh5QQwun1p5BCpEkRl_I-205" vertex="1">
          <mxGeometry x="50" y="107.5" width="150" height="52.5" as="geometry" />
        </mxCell>
        <mxCell id="Nh5QQwun1p5BCpEkRl_I-175" style="edgeStyle=orthogonalEdgeStyle;rounded=0;orthogonalLoop=1;jettySize=auto;html=1;" parent="Nh5QQwun1p5BCpEkRl_I-205" source="Nh5QQwun1p5BCpEkRl_I-166" target="Nh5QQwun1p5BCpEkRl_I-185" edge="1">
          <mxGeometry relative="1" as="geometry">
            <Array as="points">
              <mxPoint x="130" y="25" />
            </Array>
          </mxGeometry>
        </mxCell>
        <mxCell id="Nh5QQwun1p5BCpEkRl_I-188" value="" style="endArrow=classic;html=1;" parent="Nh5QQwun1p5BCpEkRl_I-205" target="Nh5QQwun1p5BCpEkRl_I-169" edge="1">
          <mxGeometry width="50" height="50" relative="1" as="geometry">
            <mxPoint x="290" y="26" as="sourcePoint" />
            <mxPoint x="280" y="103.5" as="targetPoint" />
          </mxGeometry>
        </mxCell>
        <mxCell id="Nh5QQwun1p5BCpEkRl_I-189" value="&lt;span style=&quot;color: rgb(34 , 34 , 34) ; font-family: &amp;#34;menlo&amp;#34; , monospace ; font-size: 11px ; text-align: left ; background-color: rgb(255 , 255 , 255)&quot;&gt;error_report[question1]&lt;/span&gt;" style="whiteSpace=wrap;html=1;" parent="Nh5QQwun1p5BCpEkRl_I-205" vertex="1">
          <mxGeometry x="300" y="300" width="190" height="40" as="geometry" />
        </mxCell>
        <mxCell id="Nh5QQwun1p5BCpEkRl_I-190" value="&lt;span style=&quot;color: rgb(34 , 34 , 34) ; font-family: &amp;#34;menlo&amp;#34; , monospace ; font-size: 11px ; text-align: left ; background-color: rgb(255 , 255 , 255)&quot;&gt;error_report[question2]&lt;/span&gt;" style="whiteSpace=wrap;html=1;" parent="Nh5QQwun1p5BCpEkRl_I-205" vertex="1">
          <mxGeometry x="50" y="300" width="190" height="40" as="geometry" />
        </mxCell>
        <mxCell id="Nh5QQwun1p5BCpEkRl_I-202" style="edgeStyle=elbowEdgeStyle;rounded=0;orthogonalLoop=1;jettySize=auto;elbow=vertical;html=1;" parent="Nh5QQwun1p5BCpEkRl_I-205" source="Nh5QQwun1p5BCpEkRl_I-185" target="Nh5QQwun1p5BCpEkRl_I-190" edge="1">
          <mxGeometry relative="1" as="geometry">
            <Array as="points">
              <mxPoint x="30" y="134" />
              <mxPoint y="140" />
            </Array>
          </mxGeometry>
        </mxCell>
        <mxCell id="Nh5QQwun1p5BCpEkRl_I-191" value="&lt;span style=&quot;color: rgb(34 , 34 , 34) ; font-family: &amp;#34;menlo&amp;#34; , monospace ; font-size: 11px ; text-align: left ; background-color: rgb(255 , 255 , 255)&quot;&gt;error_report[validation]&lt;/span&gt;" style="whiteSpace=wrap;html=1;" parent="Nh5QQwun1p5BCpEkRl_I-205" vertex="1">
          <mxGeometry x="300" y="380" width="190" height="40" as="geometry" />
        </mxCell>
        <mxCell id="Nh5QQwun1p5BCpEkRl_I-192" value="" style="edgeStyle=orthogonalEdgeStyle;rounded=0;orthogonalLoop=1;jettySize=auto;html=1;" parent="Nh5QQwun1p5BCpEkRl_I-205" source="Nh5QQwun1p5BCpEkRl_I-189" target="Nh5QQwun1p5BCpEkRl_I-191" edge="1">
          <mxGeometry relative="1" as="geometry">
            <Array as="points">
              <mxPoint x="390" y="380" />
              <mxPoint x="390" y="380" />
            </Array>
          </mxGeometry>
        </mxCell>
        <mxCell id="Nh5QQwun1p5BCpEkRl_I-196" style="edgeStyle=none;rounded=0;orthogonalLoop=1;jettySize=auto;html=1;entryX=0.474;entryY=0;entryDx=0;entryDy=0;entryPerimeter=0;" parent="Nh5QQwun1p5BCpEkRl_I-205" source="Nh5QQwun1p5BCpEkRl_I-193" target="Nh5QQwun1p5BCpEkRl_I-189" edge="1">
          <mxGeometry relative="1" as="geometry" />
        </mxCell>
        <mxCell id="Nh5QQwun1p5BCpEkRl_I-193" value="" style="shape=mxgraph.bpmn.shape;html=1;verticalLabelPosition=bottom;labelBackgroundColor=#ffffff;verticalAlign=top;align=center;perimeter=rhombusPerimeter;background=gateway;outlineConnect=0;outline=end;symbol=general;" parent="Nh5QQwun1p5BCpEkRl_I-205" vertex="1">
          <mxGeometry x="365" y="220" width="50" height="50" as="geometry" />
        </mxCell>
        <mxCell id="Nh5QQwun1p5BCpEkRl_I-198" style="edgeStyle=elbowEdgeStyle;rounded=0;orthogonalLoop=1;jettySize=auto;elbow=vertical;html=1;" parent="Nh5QQwun1p5BCpEkRl_I-205" source="Nh5QQwun1p5BCpEkRl_I-185" target="Nh5QQwun1p5BCpEkRl_I-193" edge="1">
          <mxGeometry relative="1" as="geometry">
            <Array as="points">
              <mxPoint x="360" y="190" />
              <mxPoint x="370" y="200" />
              <mxPoint x="370" y="190" />
              <mxPoint x="390" y="200" />
              <mxPoint x="400" y="190" />
              <mxPoint x="380" y="190" />
            </Array>
          </mxGeometry>
        </mxCell>
        <mxCell id="Nh5QQwun1p5BCpEkRl_I-179" style="edgeStyle=orthogonalEdgeStyle;rounded=0;orthogonalLoop=1;jettySize=auto;html=1;" parent="1" source="Nh5QQwun1p5BCpEkRl_I-166" target="Nh5QQwun1p5BCpEkRl_I-174" edge="1">
          <mxGeometry relative="1" as="geometry" />
        </mxCell>
        <mxCell id="Nh5QQwun1p5BCpEkRl_I-200" style="edgeStyle=elbowEdgeStyle;rounded=0;orthogonalLoop=1;jettySize=auto;elbow=vertical;html=1;" parent="1" source="Nh5QQwun1p5BCpEkRl_I-174" target="Nh5QQwun1p5BCpEkRl_I-193" edge="1">
          <mxGeometry relative="1" as="geometry">
            <Array as="points">
              <mxPoint x="-160" y="1140" />
              <mxPoint x="-50" y="1130" />
              <mxPoint x="-70" y="1140" />
              <mxPoint x="390" y="190" />
              <mxPoint x="400" y="190" />
            </Array>
          </mxGeometry>
        </mxCell>
        <mxCell id="Nh5QQwun1p5BCpEkRl_I-252" value="" style="group" parent="1" vertex="1" connectable="0">
          <mxGeometry x="-30" y="1210" width="901" height="401" as="geometry" />
        </mxCell>
        <mxCell id="Nh5QQwun1p5BCpEkRl_I-203" value="&lt;span style=&quot;color: rgb(34 , 34 , 34) ; font-family: &amp;#34;menlo&amp;#34; , monospace ; font-size: 11px ; text-align: left ; background-color: rgb(255 , 255 , 255)&quot;&gt;error_report[problemTypeId][1]&lt;/span&gt;" style="whiteSpace=wrap;html=1;" parent="Nh5QQwun1p5BCpEkRl_I-252" vertex="1">
          <mxGeometry y="670" width="220" height="40" as="geometry" />
        </mxCell>
        <mxCell id="Nh5QQwun1p5BCpEkRl_I-204" value="" style="shape=mxgraph.bpmn.shape;html=1;verticalLabelPosition=bottom;labelBackgroundColor=#ffffff;verticalAlign=top;align=center;perimeter=rhombusPerimeter;background=gateway;outlineConnect=0;outline=none;symbol=exclusiveGw;" parent="Nh5QQwun1p5BCpEkRl_I-252" vertex="1">
          <mxGeometry x="85" y="771" width="50" height="50" as="geometry" />
        </mxCell>
        <mxCell id="Nh5QQwun1p5BCpEkRl_I-207" style="edgeStyle=none;rounded=0;orthogonalLoop=1;jettySize=auto;html=1;entryX=0.5;entryY=0;entryDx=0;entryDy=0;" parent="Nh5QQwun1p5BCpEkRl_I-252" source="Nh5QQwun1p5BCpEkRl_I-203" target="Nh5QQwun1p5BCpEkRl_I-204" edge="1">
          <mxGeometry relative="1" as="geometry" />
        </mxCell>
        <mxCell id="Nh5QQwun1p5BCpEkRl_I-208" value="&lt;span style=&quot;color: rgb(34 , 34 , 34) ; font-family: &amp;#34;menlo&amp;#34; , monospace ; font-size: 11px ; text-align: left ; background-color: rgb(255 , 255 , 255)&quot;&gt;Pricing Error&lt;br&gt;     &lt;/span&gt;" style="whiteSpace=wrap;html=1;" parent="Nh5QQwun1p5BCpEkRl_I-252" vertex="1">
          <mxGeometry x="180" y="811" width="120" height="40" as="geometry" />
        </mxCell>
        <mxCell id="Nh5QQwun1p5BCpEkRl_I-244" style="edgeStyle=orthogonalEdgeStyle;rounded=0;orthogonalLoop=1;jettySize=auto;html=1;exitX=1;exitY=0.5;exitDx=0;exitDy=0;entryX=0;entryY=0.5;entryDx=0;entryDy=0;" parent="Nh5QQwun1p5BCpEkRl_I-252" source="Nh5QQwun1p5BCpEkRl_I-209" edge="1">
          <mxGeometry relative="1" as="geometry">
            <mxPoint x="409" y="1011" as="targetPoint" />
            <Array as="points">
              <mxPoint x="370" y="911" />
              <mxPoint x="370" y="1011" />
            </Array>
          </mxGeometry>
        </mxCell>
        <mxCell id="Nh5QQwun1p5BCpEkRl_I-209" value="&lt;span style=&quot;color: rgb(34 , 34 , 34) ; font-family: &amp;#34;menlo&amp;#34; , monospace ; font-size: 11px ; font-style: normal ; font-weight: 400 ; letter-spacing: normal ; text-align: left ; text-indent: 0px ; text-transform: none ; word-spacing: 0px ; background-color: rgb(255 , 255 , 255) ; display: inline ; float: none&quot;&gt;      Product Availability Error&lt;/span&gt;" style="whiteSpace=wrap;html=1;" parent="Nh5QQwun1p5BCpEkRl_I-252" vertex="1">
          <mxGeometry x="180" y="881" width="120" height="60" as="geometry" />
        </mxCell>
        <mxCell id="Nh5QQwun1p5BCpEkRl_I-228" style="edgeStyle=orthogonalEdgeStyle;rounded=0;orthogonalLoop=1;jettySize=auto;html=1;" parent="Nh5QQwun1p5BCpEkRl_I-252" source="Nh5QQwun1p5BCpEkRl_I-210" edge="1">
          <mxGeometry relative="1" as="geometry">
            <mxPoint x="410" y="1011" as="targetPoint" />
            <Array as="points">
              <mxPoint x="370" y="980" />
              <mxPoint x="370" y="1011" />
            </Array>
          </mxGeometry>
        </mxCell>
        <mxCell id="Nh5QQwun1p5BCpEkRl_I-210" value="&lt;span style=&quot;color: rgb(34 , 34 , 34) ; font-family: &amp;#34;menlo&amp;#34; , monospace ; font-size: 11px ; text-align: left ; background-color: rgb(255 , 255 , 255)&quot;&gt;      Discontinued Item&lt;br&gt;&lt;/span&gt;" style="whiteSpace=wrap;html=1;" parent="Nh5QQwun1p5BCpEkRl_I-252" vertex="1">
          <mxGeometry x="180" y="965" width="120" height="30" as="geometry" />
        </mxCell>
        <mxCell id="Nh5QQwun1p5BCpEkRl_I-234" style="edgeStyle=orthogonalEdgeStyle;rounded=0;orthogonalLoop=1;jettySize=auto;html=1;" parent="Nh5QQwun1p5BCpEkRl_I-252" source="Nh5QQwun1p5BCpEkRl_I-211" edge="1">
          <mxGeometry relative="1" as="geometry">
            <mxPoint x="410" y="1011" as="targetPoint" />
            <Array as="points">
              <mxPoint x="370" y="1041" />
              <mxPoint x="370" y="1011" />
            </Array>
          </mxGeometry>
        </mxCell>
        <mxCell id="Nh5QQwun1p5BCpEkRl_I-211" value="&lt;span style=&quot;color: rgb(34 , 34 , 34) ; font-family: &amp;#34;menlo&amp;#34; , monospace ; font-size: 11px ; text-align: left ; background-color: rgb(255 , 255 , 255)&quot;&gt;Other Product Inventory, Availability &amp;amp; Pricing Error&lt;/span&gt;" style="whiteSpace=wrap;html=1;" parent="Nh5QQwun1p5BCpEkRl_I-252" vertex="1">
          <mxGeometry x="180" y="1011" width="120" height="60" as="geometry" />
        </mxCell>
        <mxCell id="Nh5QQwun1p5BCpEkRl_I-213" style="edgeStyle=orthogonalEdgeStyle;rounded=0;orthogonalLoop=1;jettySize=auto;html=1;entryX=0;entryY=0.75;entryDx=0;entryDy=0;" parent="Nh5QQwun1p5BCpEkRl_I-252" source="Nh5QQwun1p5BCpEkRl_I-204" target="Nh5QQwun1p5BCpEkRl_I-211" edge="1">
          <mxGeometry relative="1" as="geometry">
            <mxPoint x="110" y="891" as="targetPoint" />
          </mxGeometry>
        </mxCell>
        <mxCell id="Nh5QQwun1p5BCpEkRl_I-215" value="" style="endArrow=classic;html=1;entryX=0;entryY=0.5;entryDx=0;entryDy=0;" parent="Nh5QQwun1p5BCpEkRl_I-252" target="Nh5QQwun1p5BCpEkRl_I-209" edge="1">
          <mxGeometry width="50" height="50" relative="1" as="geometry">
            <mxPoint x="158" y="911" as="sourcePoint" />
            <mxPoint x="178" y="911" as="targetPoint" />
          </mxGeometry>
        </mxCell>
        <mxCell id="Nh5QQwun1p5BCpEkRl_I-216" style="edgeStyle=none;rounded=0;orthogonalLoop=1;jettySize=auto;html=1;entryX=0;entryY=0.5;entryDx=0;entryDy=0;" parent="Nh5QQwun1p5BCpEkRl_I-252" source="Nh5QQwun1p5BCpEkRl_I-209" target="Nh5QQwun1p5BCpEkRl_I-209" edge="1">
          <mxGeometry relative="1" as="geometry" />
        </mxCell>
        <mxCell id="Nh5QQwun1p5BCpEkRl_I-218" value="" style="endArrow=classic;html=1;entryX=0;entryY=0.5;entryDx=0;entryDy=0;" parent="Nh5QQwun1p5BCpEkRl_I-252" edge="1">
          <mxGeometry width="50" height="50" relative="1" as="geometry">
            <mxPoint x="159" y="831" as="sourcePoint" />
            <mxPoint x="179" y="831" as="targetPoint" />
          </mxGeometry>
        </mxCell>
        <mxCell id="Nh5QQwun1p5BCpEkRl_I-219" value="" style="endArrow=classic;html=1;entryX=0;entryY=0.5;entryDx=0;entryDy=0;" parent="Nh5QQwun1p5BCpEkRl_I-252" edge="1">
          <mxGeometry width="50" height="50" relative="1" as="geometry">
            <mxPoint x="159" y="981" as="sourcePoint" />
            <mxPoint x="179" y="981" as="targetPoint" />
          </mxGeometry>
        </mxCell>
        <mxCell id="Nh5QQwun1p5BCpEkRl_I-220" value="&lt;span style=&quot;color: rgb(34 , 34 , 34) ; font-family: &amp;#34;menlo&amp;#34; , monospace ; font-size: 11px ; text-align: left ; background-color: rgb(255 , 255 , 255)&quot;&gt;error_report[problemTypeId][2]&lt;/span&gt;" style="whiteSpace=wrap;html=1;" parent="Nh5QQwun1p5BCpEkRl_I-252" vertex="1">
          <mxGeometry x="370" y="751" width="220" height="35" as="geometry" />
        </mxCell>
        <mxCell id="Nh5QQwun1p5BCpEkRl_I-237" style="edgeStyle=orthogonalEdgeStyle;rounded=0;orthogonalLoop=1;jettySize=auto;html=1;entryX=0;entryY=0.5;entryDx=0;entryDy=0;" parent="Nh5QQwun1p5BCpEkRl_I-252" source="Nh5QQwun1p5BCpEkRl_I-208" target="Nh5QQwun1p5BCpEkRl_I-220" edge="1">
          <mxGeometry relative="1" as="geometry">
            <mxPoint x="370" y="811" as="targetPoint" />
          </mxGeometry>
        </mxCell>
        <mxCell id="Nh5QQwun1p5BCpEkRl_I-222" value="&lt;span style=&quot;color: rgb(34 , 34 , 34) ; font-family: &amp;#34;menlo&amp;#34; , monospace ; font-size: 11px ; text-align: left ; background-color: rgb(255 , 255 , 255)&quot;&gt;error_report[question2]&lt;/span&gt;" style="whiteSpace=wrap;html=1;" parent="Nh5QQwun1p5BCpEkRl_I-252" vertex="1">
          <mxGeometry x="500" y="893" width="190" height="36" as="geometry" />
        </mxCell>
        <mxCell id="Nh5QQwun1p5BCpEkRl_I-245" style="edgeStyle=orthogonalEdgeStyle;rounded=0;orthogonalLoop=1;jettySize=auto;html=1;entryX=0;entryY=0.5;entryDx=0;entryDy=0;" parent="Nh5QQwun1p5BCpEkRl_I-252" source="Nh5QQwun1p5BCpEkRl_I-209" target="Nh5QQwun1p5BCpEkRl_I-222" edge="1">
          <mxGeometry relative="1" as="geometry">
            <mxPoint x="520" y="911" as="targetPoint" />
          </mxGeometry>
        </mxCell>
        <mxCell id="Nh5QQwun1p5BCpEkRl_I-223" value="&lt;span style=&quot;color: rgb(34 , 34 , 34) ; font-family: &amp;#34;menlo&amp;#34; , monospace ; font-size: 11px ; text-align: left ; background-color: rgb(255 , 255 , 255)&quot;&gt;error_report[question1]&lt;/span&gt;" style="whiteSpace=wrap;html=1;" parent="Nh5QQwun1p5BCpEkRl_I-252" vertex="1">
          <mxGeometry x="500" y="965" width="190" height="40" as="geometry" />
        </mxCell>
        <mxCell id="Nh5QQwun1p5BCpEkRl_I-224" value="&lt;span style=&quot;color: rgb(34 , 34 , 34) ; font-family: &amp;#34;menlo&amp;#34; , monospace ; font-size: 11px ; text-align: left ; background-color: rgb(255 , 255 , 255)&quot;&gt;error_report[validation]&lt;/span&gt;" style="whiteSpace=wrap;html=1;" parent="Nh5QQwun1p5BCpEkRl_I-252" vertex="1">
          <mxGeometry x="500" y="1031" width="190" height="40" as="geometry" />
        </mxCell>
        <mxCell id="Nh5QQwun1p5BCpEkRl_I-249" style="edgeStyle=orthogonalEdgeStyle;rounded=0;orthogonalLoop=1;jettySize=auto;html=1;exitX=1;exitY=0.5;exitDx=0;exitDy=0;entryX=0;entryY=0.5;entryDx=0;entryDy=0;" parent="Nh5QQwun1p5BCpEkRl_I-252" source="Nh5QQwun1p5BCpEkRl_I-246" target="Nh5QQwun1p5BCpEkRl_I-223" edge="1">
          <mxGeometry relative="1" as="geometry" />
        </mxCell>
        <mxCell id="Nh5QQwun1p5BCpEkRl_I-250" style="edgeStyle=orthogonalEdgeStyle;rounded=0;orthogonalLoop=1;jettySize=auto;html=1;" parent="Nh5QQwun1p5BCpEkRl_I-252" source="Nh5QQwun1p5BCpEkRl_I-246" target="Nh5QQwun1p5BCpEkRl_I-224" edge="1">
          <mxGeometry relative="1" as="geometry">
            <mxPoint x="500" y="1051" as="targetPoint" />
          </mxGeometry>
        </mxCell>
        <mxCell id="Nh5QQwun1p5BCpEkRl_I-246" value="" style="shape=mxgraph.bpmn.shape;html=1;verticalLabelPosition=bottom;labelBackgroundColor=#ffffff;verticalAlign=top;align=center;perimeter=rhombusPerimeter;background=gateway;outlineConnect=0;outline=none;symbol=parallelGw;" parent="Nh5QQwun1p5BCpEkRl_I-252" vertex="1">
          <mxGeometry x="409" y="986" width="50" height="50" as="geometry" />
        </mxCell>
        <mxCell id="Nh5QQwun1p5BCpEkRl_I-251" style="edgeStyle=orthogonalEdgeStyle;rounded=0;orthogonalLoop=1;jettySize=auto;html=1;entryX=1;entryY=0.5;entryDx=0;entryDy=0;" parent="Nh5QQwun1p5BCpEkRl_I-252" source="Nh5QQwun1p5BCpEkRl_I-220" target="Nh5QQwun1p5BCpEkRl_I-223" edge="1">
          <mxGeometry relative="1" as="geometry" />
        </mxCell>
        <mxCell id="Nh5QQwun1p5BCpEkRl_I-317" value="&lt;span style=&quot;color: rgb(34 , 34 , 34) ; font-family: &amp;#34;menlo&amp;#34; , monospace ; font-size: 11px ; text-align: left ; background-color: rgb(255 , 255 , 255)&quot;&gt;error_report[question1]&lt;/span&gt;" style="whiteSpace=wrap;html=1;" parent="Nh5QQwun1p5BCpEkRl_I-252" vertex="1">
          <mxGeometry x="711" y="549" width="190" height="40" as="geometry" />
        </mxCell>
        <mxCell id="Nh5QQwun1p5BCpEkRl_I-318" value="&lt;span style=&quot;color: rgb(34 , 34 , 34) ; font-family: &amp;#34;menlo&amp;#34; , monospace ; font-size: 11px ; text-align: left ; background-color: rgb(255 , 255 , 255)&quot;&gt;error_report[validation]&lt;/span&gt;" style="whiteSpace=wrap;html=1;" parent="Nh5QQwun1p5BCpEkRl_I-252" vertex="1">
          <mxGeometry x="711" y="615" width="190" height="40" as="geometry" />
        </mxCell>
        <mxCell id="Nh5QQwun1p5BCpEkRl_I-316" value="" style="shape=mxgraph.bpmn.shape;html=1;verticalLabelPosition=bottom;labelBackgroundColor=#ffffff;verticalAlign=top;align=center;perimeter=rhombusPerimeter;background=gateway;outlineConnect=0;outline=none;symbol=parallelGw;" parent="Nh5QQwun1p5BCpEkRl_I-252" vertex="1">
          <mxGeometry x="620" y="570" width="50" height="50" as="geometry" />
        </mxCell>
        <mxCell id="Nh5QQwun1p5BCpEkRl_I-314" style="edgeStyle=orthogonalEdgeStyle;rounded=0;orthogonalLoop=1;jettySize=auto;html=1;exitX=1;exitY=0.5;exitDx=0;exitDy=0;entryX=0;entryY=0.5;entryDx=0;entryDy=0;" parent="Nh5QQwun1p5BCpEkRl_I-252" source="Nh5QQwun1p5BCpEkRl_I-316" target="Nh5QQwun1p5BCpEkRl_I-317" edge="1">
          <mxGeometry relative="1" as="geometry" />
        </mxCell>
        <mxCell id="Nh5QQwun1p5BCpEkRl_I-315" style="edgeStyle=orthogonalEdgeStyle;rounded=0;orthogonalLoop=1;jettySize=auto;html=1;" parent="Nh5QQwun1p5BCpEkRl_I-252" source="Nh5QQwun1p5BCpEkRl_I-316" target="Nh5QQwun1p5BCpEkRl_I-318" edge="1">
          <mxGeometry relative="1" as="geometry">
            <mxPoint x="711" y="635" as="targetPoint" />
          </mxGeometry>
        </mxCell>
        <mxCell id="Nh5QQwun1p5BCpEkRl_I-282" value="" style="shape=mxgraph.bpmn.shape;html=1;verticalLabelPosition=bottom;labelBackgroundColor=#ffffff;verticalAlign=top;align=center;perimeter=rhombusPerimeter;background=gateway;outlineConnect=0;outline=none;symbol=exclusiveGw;" parent="Nh5QQwun1p5BCpEkRl_I-252" vertex="1">
          <mxGeometry x="240" y="310" width="50" height="50" as="geometry" />
        </mxCell>
        <mxCell id="Nh5QQwun1p5BCpEkRl_I-345" style="edgeStyle=orthogonalEdgeStyle;rounded=0;orthogonalLoop=1;jettySize=auto;html=1;entryX=0.5;entryY=0;entryDx=0;entryDy=0;" parent="1" source="Nh5QQwun1p5BCpEkRl_I-279" target="Nh5QQwun1p5BCpEkRl_I-282" edge="1">
          <mxGeometry relative="1" as="geometry" />
        </mxCell>
        <mxCell id="Nh5QQwun1p5BCpEkRl_I-279" value="&lt;meta charset=&quot;utf-8&quot;&gt;&lt;span style=&quot;color: rgb(34, 34, 34); font-family: menlo, monospace; font-size: 11px; font-style: normal; font-weight: 400; letter-spacing: normal; text-align: left; text-indent: 0px; text-transform: none; word-spacing: 0px; background-color: rgb(255, 255, 255); display: inline; float: none;&quot;&gt;error_report[problemTypeId][1]&lt;/span&gt;" style="whiteSpace=wrap;html=1;" parent="1" vertex="1">
          <mxGeometry x="150" y="1430" width="230" height="40" as="geometry" />
        </mxCell>
        <mxCell id="Nh5QQwun1p5BCpEkRl_I-293" style="edgeStyle=orthogonalEdgeStyle;rounded=0;orthogonalLoop=1;jettySize=auto;html=1;" parent="1" source="Nh5QQwun1p5BCpEkRl_I-281" edge="1">
          <mxGeometry relative="1" as="geometry">
            <mxPoint x="580" y="1525" as="targetPoint" />
          </mxGeometry>
        </mxCell>
        <mxCell id="Nh5QQwun1p5BCpEkRl_I-281" value="&lt;span style=&quot;color: rgb(34 , 34 , 34) ; font-family: &amp;#34;menlo&amp;#34; , monospace ; font-size: 11px ; text-align: left ; background-color: rgb(255 , 255 , 255)&quot;&gt;      Weight/Dimensions Error&lt;br&gt;&lt;/span&gt;" style="whiteSpace=wrap;html=1;" parent="1" vertex="1">
          <mxGeometry x="322" y="1510" width="180" height="30" as="geometry" />
        </mxCell>
        <mxCell id="Nh5QQwun1p5BCpEkRl_I-319" style="edgeStyle=orthogonalEdgeStyle;rounded=0;orthogonalLoop=1;jettySize=auto;html=1;exitX=1;exitY=0.5;exitDx=0;exitDy=0;entryX=0;entryY=0.5;entryDx=0;entryDy=0;" parent="1" source="Nh5QQwun1p5BCpEkRl_I-283" target="Nh5QQwun1p5BCpEkRl_I-316" edge="1">
          <mxGeometry relative="1" as="geometry" />
        </mxCell>
        <mxCell id="Nh5QQwun1p5BCpEkRl_I-330" style="edgeStyle=orthogonalEdgeStyle;rounded=0;orthogonalLoop=1;jettySize=auto;html=1;exitX=1;exitY=0.25;exitDx=0;exitDy=0;entryX=0;entryY=0.5;entryDx=0;entryDy=0;" parent="1" source="Nh5QQwun1p5BCpEkRl_I-283" target="Nh5QQwun1p5BCpEkRl_I-337" edge="1">
          <mxGeometry relative="1" as="geometry">
            <mxPoint x="600" y="1670" as="targetPoint" />
            <Array as="points">
              <mxPoint x="580" y="1566" />
              <mxPoint x="580" y="1670" />
            </Array>
          </mxGeometry>
        </mxCell>
        <mxCell id="Nh5QQwun1p5BCpEkRl_I-283" value="&lt;span style=&quot;color: rgb(34 , 34 , 34) ; font-family: &amp;#34;menlo&amp;#34; , monospace ; font-size: 11px ; text-align: left ; background-color: rgb(255 , 255 , 255)&quot;&gt;      Fitment/Note Error&lt;br&gt;&lt;/span&gt;" style="whiteSpace=wrap;html=1;" parent="1" vertex="1">
          <mxGeometry x="322" y="1558" width="180" height="30" as="geometry" />
        </mxCell>
        <mxCell id="Nh5QQwun1p5BCpEkRl_I-325" style="edgeStyle=orthogonalEdgeStyle;rounded=0;orthogonalLoop=1;jettySize=auto;html=1;entryX=0;entryY=0.5;entryDx=0;entryDy=0;" parent="1" source="Nh5QQwun1p5BCpEkRl_I-284" target="Nh5QQwun1p5BCpEkRl_I-316" edge="1">
          <mxGeometry relative="1" as="geometry" />
        </mxCell>
        <mxCell id="Nh5QQwun1p5BCpEkRl_I-339" style="edgeStyle=orthogonalEdgeStyle;rounded=0;orthogonalLoop=1;jettySize=auto;html=1;exitX=1;exitY=0.25;exitDx=0;exitDy=0;entryX=0;entryY=0.5;entryDx=0;entryDy=0;" parent="1" source="Nh5QQwun1p5BCpEkRl_I-284" target="Nh5QQwun1p5BCpEkRl_I-337" edge="1">
          <mxGeometry relative="1" as="geometry">
            <mxPoint x="610" y="1612.6666666666665" as="targetPoint" />
            <Array as="points">
              <mxPoint x="580" y="1612" />
              <mxPoint x="580" y="1670" />
            </Array>
          </mxGeometry>
        </mxCell>
        <mxCell id="Nh5QQwun1p5BCpEkRl_I-284" value="&lt;span style=&quot;color: rgb(34 , 34 , 34) ; font-family: &amp;#34;menlo&amp;#34; , monospace ; font-size: 11px ; text-align: left ; background-color: rgb(255 , 255 , 255)&quot;&gt;      Description Error&lt;br&gt;&lt;/span&gt;" style="whiteSpace=wrap;html=1;" parent="1" vertex="1">
          <mxGeometry x="322" y="1605" width="180" height="30" as="geometry" />
        </mxCell>
        <mxCell id="Nh5QQwun1p5BCpEkRl_I-324" style="edgeStyle=orthogonalEdgeStyle;rounded=0;orthogonalLoop=1;jettySize=auto;html=1;" parent="1" edge="1">
          <mxGeometry relative="1" as="geometry">
            <mxPoint x="498.0000000000002" y="1667.9999999999998" as="sourcePoint" />
            <mxPoint x="586.0476190476193" y="1805.047619047619" as="targetPoint" />
            <Array as="points">
              <mxPoint x="546" y="1668" />
              <mxPoint x="546" y="1805" />
            </Array>
          </mxGeometry>
        </mxCell>
        <mxCell id="Nh5QQwun1p5BCpEkRl_I-340" style="edgeStyle=orthogonalEdgeStyle;rounded=0;orthogonalLoop=1;jettySize=auto;html=1;exitX=1;exitY=0.25;exitDx=0;exitDy=0;" parent="1" source="Nh5QQwun1p5BCpEkRl_I-285" edge="1">
          <mxGeometry relative="1" as="geometry">
            <mxPoint x="620" y="1670" as="targetPoint" />
            <Array as="points">
              <mxPoint x="580" y="1660" />
              <mxPoint x="580" y="1670" />
            </Array>
          </mxGeometry>
        </mxCell>
        <mxCell id="Nh5QQwun1p5BCpEkRl_I-285" value="&lt;span style=&quot;color: rgb(34 , 34 , 34) ; font-family: &amp;#34;menlo&amp;#34; , monospace ; font-size: 11px ; text-align: left ; background-color: rgb(255 , 255 , 255)&quot;&gt;Image Error&lt;/span&gt;&lt;span style=&quot;color: rgb(34 , 34 , 34) ; font-family: &amp;#34;menlo&amp;#34; , monospace ; font-size: 11px ; text-align: left ; background-color: rgb(255 , 255 , 255)&quot;&gt;&lt;br&gt;&lt;/span&gt;" style="whiteSpace=wrap;html=1;" parent="1" vertex="1">
          <mxGeometry x="322" y="1653" width="180" height="30" as="geometry" />
        </mxCell>
        <mxCell id="Nh5QQwun1p5BCpEkRl_I-323" style="edgeStyle=orthogonalEdgeStyle;rounded=0;orthogonalLoop=1;jettySize=auto;html=1;exitX=1;exitY=0.5;exitDx=0;exitDy=0;entryX=0;entryY=0.5;entryDx=0;entryDy=0;" parent="1" source="Nh5QQwun1p5BCpEkRl_I-286" target="Nh5QQwun1p5BCpEkRl_I-316" edge="1">
          <mxGeometry relative="1" as="geometry" />
        </mxCell>
        <mxCell id="Nh5QQwun1p5BCpEkRl_I-286" value="&lt;span style=&quot;color: rgb(34 , 34 , 34) ; font-family: &amp;#34;menlo&amp;#34; , monospace ; font-size: 11px ; text-align: left ; background-color: rgb(255 , 255 , 255)&quot;&gt;Other Product Data&lt;/span&gt;&lt;span style=&quot;color: rgb(34 , 34 , 34) ; font-family: &amp;#34;menlo&amp;#34; , monospace ; font-size: 11px ; text-align: left ; background-color: rgb(255 , 255 , 255)&quot;&gt;&lt;br&gt;&lt;/span&gt;" style="whiteSpace=wrap;html=1;" parent="1" vertex="1">
          <mxGeometry x="322" y="1700" width="180" height="30" as="geometry" />
        </mxCell>
        <mxCell id="Nh5QQwun1p5BCpEkRl_I-295" value="&lt;span style=&quot;color: rgb(34 , 34 , 34) ; font-family: &amp;#34;menlo&amp;#34; , monospace ; font-size: 11px ; text-align: left ; background-color: rgb(255 , 255 , 255)&quot;&gt;error_report[dimensions][weight]&lt;/span&gt;" style="whiteSpace=wrap;html=1;" parent="1" vertex="1">
          <mxGeometry x="680" y="1449" width="240" height="30" as="geometry" />
        </mxCell>
        <mxCell id="Nh5QQwun1p5BCpEkRl_I-297" value="&lt;span style=&quot;color: rgb(34 , 34 , 34) ; font-family: &amp;#34;menlo&amp;#34; , monospace ; font-size: 11px ; text-align: left ; background-color: rgb(255 , 255 , 255)&quot;&gt;error_report[dimensions][weight]&lt;/span&gt;" style="whiteSpace=wrap;html=1;" parent="1" vertex="1">
          <mxGeometry x="680" y="1491" width="240" height="30" as="geometry" />
        </mxCell>
        <mxCell id="Nh5QQwun1p5BCpEkRl_I-298" value="&lt;span style=&quot;color: rgb(34 , 34 , 34) ; font-family: &amp;#34;menlo&amp;#34; , monospace ; font-size: 11px ; text-align: left ; background-color: rgb(255 , 255 , 255)&quot;&gt;error_report[dimensions][weight]&lt;/span&gt;" style="whiteSpace=wrap;html=1;" parent="1" vertex="1">
          <mxGeometry x="680" y="1532" width="240" height="30" as="geometry" />
        </mxCell>
        <mxCell id="Nh5QQwun1p5BCpEkRl_I-299" value="&lt;span style=&quot;color: rgb(34 , 34 , 34) ; font-family: &amp;#34;menlo&amp;#34; , monospace ; font-size: 11px ; text-align: left ; background-color: rgb(255 , 255 , 255)&quot;&gt;error_report[dimensions][weight]&lt;/span&gt;" style="whiteSpace=wrap;html=1;" parent="1" vertex="1">
          <mxGeometry x="680" y="1574" width="240" height="30" as="geometry" />
        </mxCell>
        <mxCell id="Nh5QQwun1p5BCpEkRl_I-301" style="edgeStyle=orthogonalEdgeStyle;rounded=0;orthogonalLoop=1;jettySize=auto;html=1;exitX=1;exitY=0.5;exitDx=0;exitDy=0;entryX=0;entryY=0.5;entryDx=0;entryDy=0;" parent="1" source="Nh5QQwun1p5BCpEkRl_I-300" target="Nh5QQwun1p5BCpEkRl_I-295" edge="1">
          <mxGeometry relative="1" as="geometry" />
        </mxCell>
        <mxCell id="Nh5QQwun1p5BCpEkRl_I-303" style="edgeStyle=orthogonalEdgeStyle;rounded=0;orthogonalLoop=1;jettySize=auto;html=1;exitX=1;exitY=0.5;exitDx=0;exitDy=0;" parent="1" edge="1">
          <mxGeometry relative="1" as="geometry">
            <mxPoint x="632" y="1525.5" as="sourcePoint" />
            <mxPoint x="681" y="1506" as="targetPoint" />
            <Array as="points">
              <mxPoint x="656" y="1526" />
              <mxPoint x="656" y="1506" />
              <mxPoint x="681" y="1506" />
            </Array>
          </mxGeometry>
        </mxCell>
        <mxCell id="Nh5QQwun1p5BCpEkRl_I-308" style="edgeStyle=orthogonalEdgeStyle;rounded=0;orthogonalLoop=1;jettySize=auto;html=1;entryX=0;entryY=0.5;entryDx=0;entryDy=0;" parent="1" source="Nh5QQwun1p5BCpEkRl_I-300" target="Nh5QQwun1p5BCpEkRl_I-298" edge="1">
          <mxGeometry relative="1" as="geometry" />
        </mxCell>
        <mxCell id="Nh5QQwun1p5BCpEkRl_I-309" style="edgeStyle=orthogonalEdgeStyle;rounded=0;orthogonalLoop=1;jettySize=auto;html=1;entryX=0;entryY=0.5;entryDx=0;entryDy=0;" parent="1" source="Nh5QQwun1p5BCpEkRl_I-300" target="Nh5QQwun1p5BCpEkRl_I-299" edge="1">
          <mxGeometry relative="1" as="geometry" />
        </mxCell>
        <mxCell id="Nh5QQwun1p5BCpEkRl_I-300" value="" style="shape=mxgraph.bpmn.shape;html=1;verticalLabelPosition=bottom;labelBackgroundColor=#ffffff;verticalAlign=top;align=center;perimeter=rhombusPerimeter;background=gateway;outlineConnect=0;outline=none;symbol=parallelGw;" parent="1" vertex="1">
          <mxGeometry x="581" y="1500.5" width="50" height="50" as="geometry" />
        </mxCell>
        <mxCell id="Nh5QQwun1p5BCpEkRl_I-326" value="&lt;span style=&quot;color: rgb(34 , 34 , 34) ; font-family: &amp;#34;menlo&amp;#34; , monospace ; font-size: 11px ; text-align: left ; background-color: rgb(255 , 255 , 255)&quot;&gt;error_report[question2]&lt;/span&gt;" style="whiteSpace=wrap;html=1;" parent="1" vertex="1">
          <mxGeometry x="700" y="1650" width="220" height="40" as="geometry" />
        </mxCell>
        <mxCell id="Nh5QQwun1p5BCpEkRl_I-338" style="edgeStyle=none;rounded=0;orthogonalLoop=1;jettySize=auto;html=1;entryX=0;entryY=0.5;entryDx=0;entryDy=0;" parent="1" source="Nh5QQwun1p5BCpEkRl_I-337" target="Nh5QQwun1p5BCpEkRl_I-326" edge="1">
          <mxGeometry relative="1" as="geometry" />
        </mxCell>
        <mxCell id="Nh5QQwun1p5BCpEkRl_I-337" value="" style="shape=mxgraph.bpmn.shape;html=1;verticalLabelPosition=bottom;labelBackgroundColor=#ffffff;verticalAlign=top;align=center;perimeter=rhombusPerimeter;background=gateway;outlineConnect=0;outline=standard;symbol=general;" parent="1" vertex="1">
          <mxGeometry x="620" y="1645" width="50" height="50" as="geometry" />
        </mxCell>
        <mxCell id="Nh5QQwun1p5BCpEkRl_I-347" style="edgeStyle=orthogonalEdgeStyle;rounded=0;orthogonalLoop=1;jettySize=auto;html=1;exitX=1;exitY=0.5;exitDx=0;exitDy=0;entryX=0;entryY=0.5;entryDx=0;entryDy=0;" parent="1" source="Nh5QQwun1p5BCpEkRl_I-282" target="Nh5QQwun1p5BCpEkRl_I-281" edge="1">
          <mxGeometry relative="1" as="geometry" />
        </mxCell>
        <mxCell id="Nh5QQwun1p5BCpEkRl_I-349" style="edgeStyle=orthogonalEdgeStyle;rounded=0;orthogonalLoop=1;jettySize=auto;html=1;entryX=0;entryY=0.5;entryDx=0;entryDy=0;" parent="1" source="Nh5QQwun1p5BCpEkRl_I-282" target="Nh5QQwun1p5BCpEkRl_I-283" edge="1">
          <mxGeometry relative="1" as="geometry" />
        </mxCell>
        <mxCell id="Nh5QQwun1p5BCpEkRl_I-350" style="edgeStyle=orthogonalEdgeStyle;rounded=0;orthogonalLoop=1;jettySize=auto;html=1;entryX=0;entryY=0.5;entryDx=0;entryDy=0;" parent="1" source="Nh5QQwun1p5BCpEkRl_I-282" target="Nh5QQwun1p5BCpEkRl_I-284" edge="1">
          <mxGeometry relative="1" as="geometry" />
        </mxCell>
        <mxCell id="Nh5QQwun1p5BCpEkRl_I-351" style="edgeStyle=orthogonalEdgeStyle;rounded=0;orthogonalLoop=1;jettySize=auto;html=1;entryX=0;entryY=0.5;entryDx=0;entryDy=0;" parent="1" source="Nh5QQwun1p5BCpEkRl_I-282" target="Nh5QQwun1p5BCpEkRl_I-285" edge="1">
          <mxGeometry relative="1" as="geometry" />
        </mxCell>
        <mxCell id="Nh5QQwun1p5BCpEkRl_I-352" style="edgeStyle=orthogonalEdgeStyle;rounded=0;orthogonalLoop=1;jettySize=auto;html=1;entryX=0;entryY=0.5;entryDx=0;entryDy=0;" parent="1" source="Nh5QQwun1p5BCpEkRl_I-282" target="Nh5QQwun1p5BCpEkRl_I-286" edge="1">
          <mxGeometry relative="1" as="geometry" />
        </mxCell>
      </root>
    </mxGraphModel>
  </diagram>
  <diagram id="hB60xQu2snFUlkM0SjLe" name="Cart / Checkout">
    <mxGraphModel dx="-157" dy="376" grid="1" gridSize="10" guides="1" tooltips="1" connect="1" arrows="1" fold="1" page="1" pageScale="1" pageWidth="827" pageHeight="1169" math="0" shadow="0">
      <root>
        <mxCell id="krIFMGmJAiSnPKAG2yLH-0" />
        <mxCell id="krIFMGmJAiSnPKAG2yLH-1" parent="krIFMGmJAiSnPKAG2yLH-0" />
        <mxCell id="nhd9nXzbLGjxNw3NWdiE-0" style="edgeStyle=orthogonalEdgeStyle;rounded=0;orthogonalLoop=1;jettySize=auto;html=1;entryX=0.5;entryY=0;entryDx=0;entryDy=0;" edge="1" parent="krIFMGmJAiSnPKAG2yLH-1" source="nhd9nXzbLGjxNw3NWdiE-1" target="nhd9nXzbLGjxNw3NWdiE-10">
          <mxGeometry relative="1" as="geometry" />
        </mxCell>
        <mxCell id="nhd9nXzbLGjxNw3NWdiE-1" value="&lt;span style=&quot;color: rgb(34 , 34 , 34) ; font-family: &amp;#34;menlo&amp;#34; , monospace ; font-size: 11px ; text-align: left ; background-color: rgb(255 , 255 , 255)&quot;&gt;error_report[problemTypeId][1]&lt;/span&gt;" style="whiteSpace=wrap;html=1;" vertex="1" parent="krIFMGmJAiSnPKAG2yLH-1">
          <mxGeometry x="1140" y="1120" width="230" height="40" as="geometry" />
        </mxCell>
        <mxCell id="nhd9nXzbLGjxNw3NWdiE-2" value="&lt;span style=&quot;color: rgb(34 , 34 , 34) ; font-family: &amp;#34;menlo&amp;#34; , monospace ; font-size: 11px ; text-align: left ; background-color: rgb(255 , 255 , 255)&quot;&gt;Payment Options and Process Error&lt;br&gt;     &lt;/span&gt;" style="whiteSpace=wrap;html=1;" vertex="1" parent="krIFMGmJAiSnPKAG2yLH-1">
          <mxGeometry x="1510" y="1120" width="240" height="40" as="geometry" />
        </mxCell>
        <mxCell id="nhd9nXzbLGjxNw3NWdiE-3" value="&lt;span style=&quot;color: rgb(34 , 34 , 34) ; font-family: &amp;#34;menlo&amp;#34; , monospace ; font-size: 11px ; text-align: left ; background-color: rgb(255 , 255 , 255)&quot;&gt;Shipping Options &amp;amp; Cost Error&lt;/span&gt;" style="whiteSpace=wrap;html=1;" vertex="1" parent="krIFMGmJAiSnPKAG2yLH-1">
          <mxGeometry x="1510" y="1190" width="240" height="40" as="geometry" />
        </mxCell>
        <mxCell id="nhd9nXzbLGjxNw3NWdiE-4" value="&lt;span style=&quot;color: rgb(34 , 34 , 34) ; font-family: &amp;#34;menlo&amp;#34; , monospace ; font-size: 11px ; text-align: left ; background-color: rgb(255 , 255 , 255)&quot;&gt;Other Cart / Checkout Error&lt;/span&gt;" style="whiteSpace=wrap;html=1;" vertex="1" parent="krIFMGmJAiSnPKAG2yLH-1">
          <mxGeometry x="1510" y="1260" width="240" height="40" as="geometry" />
        </mxCell>
        <mxCell id="nhd9nXzbLGjxNw3NWdiE-5" value="&lt;span style=&quot;color: rgb(34 , 34 , 34) ; font-family: &amp;#34;menlo&amp;#34; , monospace ; font-size: 11px ; text-align: left ; background-color: rgb(255 , 255 , 255)&quot;&gt;Products Display and Behavior Error&lt;/span&gt;" style="whiteSpace=wrap;html=1;" vertex="1" parent="krIFMGmJAiSnPKAG2yLH-1">
          <mxGeometry x="1510" y="1330" width="240" height="40" as="geometry" />
        </mxCell>
        <mxCell id="nhd9nXzbLGjxNw3NWdiE-6" style="edgeStyle=orthogonalEdgeStyle;rounded=0;orthogonalLoop=1;jettySize=auto;html=1;entryX=0;entryY=0.5;entryDx=0;entryDy=0;" edge="1" parent="krIFMGmJAiSnPKAG2yLH-1" source="nhd9nXzbLGjxNw3NWdiE-10" target="nhd9nXzbLGjxNw3NWdiE-2">
          <mxGeometry relative="1" as="geometry" />
        </mxCell>
        <mxCell id="nhd9nXzbLGjxNw3NWdiE-7" style="edgeStyle=orthogonalEdgeStyle;rounded=0;orthogonalLoop=1;jettySize=auto;html=1;entryX=0;entryY=0.5;entryDx=0;entryDy=0;" edge="1" parent="krIFMGmJAiSnPKAG2yLH-1" source="nhd9nXzbLGjxNw3NWdiE-10" target="nhd9nXzbLGjxNw3NWdiE-3">
          <mxGeometry relative="1" as="geometry" />
        </mxCell>
        <mxCell id="nhd9nXzbLGjxNw3NWdiE-8" style="edgeStyle=orthogonalEdgeStyle;rounded=0;orthogonalLoop=1;jettySize=auto;html=1;entryX=0;entryY=0.5;entryDx=0;entryDy=0;" edge="1" parent="krIFMGmJAiSnPKAG2yLH-1" source="nhd9nXzbLGjxNw3NWdiE-10" target="nhd9nXzbLGjxNw3NWdiE-4">
          <mxGeometry relative="1" as="geometry" />
        </mxCell>
        <mxCell id="nhd9nXzbLGjxNw3NWdiE-9" style="edgeStyle=orthogonalEdgeStyle;rounded=0;orthogonalLoop=1;jettySize=auto;html=1;entryX=0;entryY=0.5;entryDx=0;entryDy=0;" edge="1" parent="krIFMGmJAiSnPKAG2yLH-1" source="nhd9nXzbLGjxNw3NWdiE-10" target="nhd9nXzbLGjxNw3NWdiE-5">
          <mxGeometry relative="1" as="geometry" />
        </mxCell>
        <mxCell id="nhd9nXzbLGjxNw3NWdiE-10" value="" style="shape=mxgraph.bpmn.shape;html=1;verticalLabelPosition=bottom;labelBackgroundColor=#ffffff;verticalAlign=top;align=center;perimeter=rhombusPerimeter;background=gateway;outlineConnect=0;outline=none;symbol=exclusiveGw;" vertex="1" parent="krIFMGmJAiSnPKAG2yLH-1">
          <mxGeometry x="1410" y="1220" width="50" height="50" as="geometry" />
        </mxCell>
        <mxCell id="nhd9nXzbLGjxNw3NWdiE-11" style="edgeStyle=orthogonalEdgeStyle;rounded=0;orthogonalLoop=1;jettySize=auto;html=1;exitX=0.5;exitY=1;exitDx=0;exitDy=0;" edge="1" parent="krIFMGmJAiSnPKAG2yLH-1" source="nhd9nXzbLGjxNw3NWdiE-5" target="nhd9nXzbLGjxNw3NWdiE-5">
          <mxGeometry relative="1" as="geometry" />
        </mxCell>
        <mxCell id="axEv3qPHac0hE69cdIbp-3" value="" style="edgeStyle=none;rounded=0;orthogonalLoop=1;jettySize=auto;html=1;" edge="1" parent="krIFMGmJAiSnPKAG2yLH-1" source="axEv3qPHac0hE69cdIbp-0" target="nhd9nXzbLGjxNw3NWdiE-1">
          <mxGeometry relative="1" as="geometry" />
        </mxCell>
        <mxCell id="axEv3qPHac0hE69cdIbp-0" value="&lt;span style=&quot;color: rgb(34 , 34 , 34) ; font-family: &amp;#34;menlo&amp;#34; , monospace ; font-size: 11px ; text-align: left ; background-color: rgb(255 , 255 , 255)&quot;&gt;Cart / Checkout&lt;/span&gt;" style="rounded=0;whiteSpace=wrap;html=1;" vertex="1" parent="krIFMGmJAiSnPKAG2yLH-1">
          <mxGeometry x="1145" y="1020" width="220" height="60" as="geometry" />
        </mxCell>
      </root>
    </mxGraphModel>
  </diagram>
  <diagram id="qmWzPx2iZwVkVxFpeL7q" name="Department / Category Page &amp; Products on It">
    <mxGraphModel dx="670" dy="376" grid="1" gridSize="10" guides="1" tooltips="1" connect="1" arrows="1" fold="1" page="1" pageScale="1" pageWidth="827" pageHeight="1169" math="0" shadow="0">
      <root>
        <mxCell id="2TnEpPxarYeY4vQ-YVy6-0" />
        <mxCell id="2TnEpPxarYeY4vQ-YVy6-1" parent="2TnEpPxarYeY4vQ-YVy6-0" />
        <mxCell id="l5Q8tlNVOU4_bsxx1pdr-24" value="&lt;span style=&quot;color: rgb(34 , 34 , 34) ; font-family: &amp;#34;menlo&amp;#34; , monospace ; font-size: 11px ; text-align: left ; background-color: rgb(255 , 255 , 255)&quot;&gt;      Other Department / Category Page Error&lt;br/&gt;&lt;br/&gt;&lt;/span&gt;" style="whiteSpace=wrap;html=1;" vertex="1" parent="2TnEpPxarYeY4vQ-YVy6-1">
          <mxGeometry x="590" y="1250" width="200" height="40" as="geometry" />
        </mxCell>
        <mxCell id="l5Q8tlNVOU4_bsxx1pdr-25" style="edgeStyle=orthogonalEdgeStyle;rounded=0;orthogonalLoop=1;jettySize=auto;html=1;entryX=0;entryY=0.5;entryDx=0;entryDy=0;" edge="1" parent="2TnEpPxarYeY4vQ-YVy6-1" source="l5Q8tlNVOU4_bsxx1pdr-26" target="l5Q8tlNVOU4_bsxx1pdr-33">
          <mxGeometry relative="1" as="geometry">
            <mxPoint x="445" y="990" as="targetPoint" />
          </mxGeometry>
        </mxCell>
        <mxCell id="l5Q8tlNVOU4_bsxx1pdr-26" value="&lt;meta charset=&quot;utf-8&quot;&gt;&lt;span style=&quot;color: rgb(34, 34, 34); font-family: menlo, monospace; font-size: 11px; font-style: normal; font-weight: 400; letter-spacing: normal; text-align: left; text-indent: 0px; text-transform: none; word-spacing: 0px; background-color: rgb(255, 255, 255); display: inline; float: none;&quot;&gt;error_report[problemTypeId][1]&lt;/span&gt;" style="whiteSpace=wrap;html=1;" vertex="1" parent="2TnEpPxarYeY4vQ-YVy6-1">
          <mxGeometry x="330" y="850" width="230" height="40" as="geometry" />
        </mxCell>
        <mxCell id="l5Q8tlNVOU4_bsxx1pdr-27" style="edgeStyle=orthogonalEdgeStyle;rounded=0;orthogonalLoop=1;jettySize=auto;html=1;entryX=0;entryY=0.5;entryDx=0;entryDy=0;" edge="1" parent="2TnEpPxarYeY4vQ-YVy6-1" source="l5Q8tlNVOU4_bsxx1pdr-33">
          <mxGeometry relative="1" as="geometry">
            <mxPoint x="591" y="930" as="targetPoint" />
            <Array as="points">
              <mxPoint x="570" y="994" />
              <mxPoint x="570" y="930" />
            </Array>
          </mxGeometry>
        </mxCell>
        <mxCell id="l5Q8tlNVOU4_bsxx1pdr-28" style="edgeStyle=orthogonalEdgeStyle;rounded=0;orthogonalLoop=1;jettySize=auto;html=1;entryX=0;entryY=0.5;entryDx=0;entryDy=0;" edge="1" parent="2TnEpPxarYeY4vQ-YVy6-1" source="l5Q8tlNVOU4_bsxx1pdr-33" target="l5Q8tlNVOU4_bsxx1pdr-37">
          <mxGeometry relative="1" as="geometry" />
        </mxCell>
        <mxCell id="l5Q8tlNVOU4_bsxx1pdr-29" style="edgeStyle=orthogonalEdgeStyle;rounded=0;orthogonalLoop=1;jettySize=auto;html=1;exitX=1;exitY=0.5;exitDx=0;exitDy=0;entryX=0;entryY=0.5;entryDx=0;entryDy=0;" edge="1" parent="2TnEpPxarYeY4vQ-YVy6-1" source="l5Q8tlNVOU4_bsxx1pdr-33" target="l5Q8tlNVOU4_bsxx1pdr-39">
          <mxGeometry relative="1" as="geometry" />
        </mxCell>
        <mxCell id="l5Q8tlNVOU4_bsxx1pdr-30" style="edgeStyle=orthogonalEdgeStyle;rounded=0;orthogonalLoop=1;jettySize=auto;html=1;entryX=0;entryY=0.5;entryDx=0;entryDy=0;" edge="1" parent="2TnEpPxarYeY4vQ-YVy6-1" source="l5Q8tlNVOU4_bsxx1pdr-33" target="l5Q8tlNVOU4_bsxx1pdr-41">
          <mxGeometry relative="1" as="geometry" />
        </mxCell>
        <mxCell id="l5Q8tlNVOU4_bsxx1pdr-31" style="edgeStyle=orthogonalEdgeStyle;rounded=0;orthogonalLoop=1;jettySize=auto;html=1;entryX=0;entryY=0.5;entryDx=0;entryDy=0;" edge="1" parent="2TnEpPxarYeY4vQ-YVy6-1" source="l5Q8tlNVOU4_bsxx1pdr-33" target="l5Q8tlNVOU4_bsxx1pdr-43">
          <mxGeometry relative="1" as="geometry" />
        </mxCell>
        <mxCell id="l5Q8tlNVOU4_bsxx1pdr-32" style="edgeStyle=orthogonalEdgeStyle;rounded=0;orthogonalLoop=1;jettySize=auto;html=1;entryX=0;entryY=0.5;entryDx=0;entryDy=0;" edge="1" parent="2TnEpPxarYeY4vQ-YVy6-1" source="l5Q8tlNVOU4_bsxx1pdr-33" target="l5Q8tlNVOU4_bsxx1pdr-24">
          <mxGeometry relative="1" as="geometry">
            <Array as="points">
              <mxPoint x="570" y="994" />
              <mxPoint x="570" y="1270" />
            </Array>
          </mxGeometry>
        </mxCell>
        <mxCell id="l5Q8tlNVOU4_bsxx1pdr-33" value="" style="shape=mxgraph.bpmn.shape;html=1;verticalLabelPosition=bottom;labelBackgroundColor=#ffffff;verticalAlign=top;align=center;perimeter=rhombusPerimeter;background=gateway;outlineConnect=0;outline=none;symbol=exclusiveGw;" vertex="1" parent="2TnEpPxarYeY4vQ-YVy6-1">
          <mxGeometry x="500" y="969" width="50" height="50" as="geometry" />
        </mxCell>
        <mxCell id="l5Q8tlNVOU4_bsxx1pdr-34" style="edgeStyle=orthogonalEdgeStyle;rounded=0;orthogonalLoop=1;jettySize=auto;html=1;entryX=0;entryY=0.5;entryDx=0;entryDy=0;" edge="1" parent="2TnEpPxarYeY4vQ-YVy6-1" target="l5Q8tlNVOU4_bsxx1pdr-45">
          <mxGeometry relative="1" as="geometry">
            <mxPoint x="790.0000000000005" y="930.0000000000002" as="sourcePoint" />
          </mxGeometry>
        </mxCell>
        <mxCell id="l5Q8tlNVOU4_bsxx1pdr-35" style="edgeStyle=orthogonalEdgeStyle;rounded=0;orthogonalLoop=1;jettySize=auto;html=1;exitX=1;exitY=0.25;exitDx=0;exitDy=0;entryX=0.5;entryY=0;entryDx=0;entryDy=0;" edge="1" parent="2TnEpPxarYeY4vQ-YVy6-1" target="l5Q8tlNVOU4_bsxx1pdr-48">
          <mxGeometry relative="1" as="geometry">
            <mxPoint x="790.0000000000005" y="920" as="sourcePoint" />
          </mxGeometry>
        </mxCell>
        <mxCell id="l5Q8tlNVOU4_bsxx1pdr-36" style="edgeStyle=orthogonalEdgeStyle;rounded=0;orthogonalLoop=1;jettySize=auto;html=1;exitX=1;exitY=0.5;exitDx=0;exitDy=0;entryX=0;entryY=0.5;entryDx=0;entryDy=0;" edge="1" parent="2TnEpPxarYeY4vQ-YVy6-1" source="l5Q8tlNVOU4_bsxx1pdr-37" target="l5Q8tlNVOU4_bsxx1pdr-45">
          <mxGeometry relative="1" as="geometry" />
        </mxCell>
        <mxCell id="l5Q8tlNVOU4_bsxx1pdr-37" value="&lt;span style=&quot;color: rgb(34 , 34 , 34) ; font-family: &amp;#34;menlo&amp;#34; , monospace ; font-size: 11px ; text-align: left ; background-color: rgb(255 , 255 , 255)&quot;&gt;Content Blocks Error&lt;/span&gt;" style="whiteSpace=wrap;html=1;" vertex="1" parent="2TnEpPxarYeY4vQ-YVy6-1">
          <mxGeometry x="591" y="977" width="200" height="40" as="geometry" />
        </mxCell>
        <mxCell id="l5Q8tlNVOU4_bsxx1pdr-38" style="edgeStyle=orthogonalEdgeStyle;rounded=0;orthogonalLoop=1;jettySize=auto;html=1;" edge="1" parent="2TnEpPxarYeY4vQ-YVy6-1" source="l5Q8tlNVOU4_bsxx1pdr-39" target="l5Q8tlNVOU4_bsxx1pdr-45">
          <mxGeometry relative="1" as="geometry" />
        </mxCell>
        <mxCell id="l5Q8tlNVOU4_bsxx1pdr-39" value="&lt;span style=&quot;color: rgb(34 , 34 , 34) ; font-family: &amp;#34;menlo&amp;#34; , monospace ; font-size: 11px ; text-align: left ; background-color: rgb(255 , 255 , 255)&quot;&gt;Refine Search Error&lt;/span&gt;" style="whiteSpace=wrap;html=1;" vertex="1" parent="2TnEpPxarYeY4vQ-YVy6-1">
          <mxGeometry x="591" y="1045" width="200" height="40" as="geometry" />
        </mxCell>
        <mxCell id="l5Q8tlNVOU4_bsxx1pdr-40" style="edgeStyle=orthogonalEdgeStyle;rounded=0;orthogonalLoop=1;jettySize=auto;html=1;" edge="1" parent="2TnEpPxarYeY4vQ-YVy6-1" source="l5Q8tlNVOU4_bsxx1pdr-41" target="l5Q8tlNVOU4_bsxx1pdr-45">
          <mxGeometry relative="1" as="geometry" />
        </mxCell>
        <mxCell id="l5Q8tlNVOU4_bsxx1pdr-41" value="&lt;span style=&quot;color: rgb(34 , 34 , 34) ; font-family: &amp;#34;menlo&amp;#34; , monospace ; font-size: 11px ; text-align: left ; background-color: rgb(255 , 255 , 255)&quot;&gt;Products Sorting Error&lt;/span&gt;" style="whiteSpace=wrap;html=1;" vertex="1" parent="2TnEpPxarYeY4vQ-YVy6-1">
          <mxGeometry x="591" y="1112" width="200" height="41" as="geometry" />
        </mxCell>
        <mxCell id="l5Q8tlNVOU4_bsxx1pdr-42" style="edgeStyle=orthogonalEdgeStyle;rounded=0;orthogonalLoop=1;jettySize=auto;html=1;entryX=0;entryY=0.5;entryDx=0;entryDy=0;" edge="1" parent="2TnEpPxarYeY4vQ-YVy6-1" source="l5Q8tlNVOU4_bsxx1pdr-43" target="l5Q8tlNVOU4_bsxx1pdr-45">
          <mxGeometry relative="1" as="geometry" />
        </mxCell>
        <mxCell id="l5Q8tlNVOU4_bsxx1pdr-43" value="&lt;span style=&quot;color: rgb(34 , 34 , 34) ; font-family: &amp;#34;menlo&amp;#34; , monospace ; font-size: 11px ; text-align: left ; background-color: rgb(255 , 255 , 255)&quot;&gt;Year-Make-Model Selector Error&lt;/span&gt;" style="whiteSpace=wrap;html=1;" vertex="1" parent="2TnEpPxarYeY4vQ-YVy6-1">
          <mxGeometry x="590" y="1179" width="200" height="41" as="geometry" />
        </mxCell>
        <mxCell id="l5Q8tlNVOU4_bsxx1pdr-44" style="edgeStyle=orthogonalEdgeStyle;rounded=0;orthogonalLoop=1;jettySize=auto;html=1;entryX=0;entryY=0.5;entryDx=0;entryDy=0;" edge="1" parent="2TnEpPxarYeY4vQ-YVy6-1" source="l5Q8tlNVOU4_bsxx1pdr-45" target="l5Q8tlNVOU4_bsxx1pdr-47">
          <mxGeometry relative="1" as="geometry" />
        </mxCell>
        <mxCell id="l5Q8tlNVOU4_bsxx1pdr-45" value="" style="shape=mxgraph.bpmn.shape;html=1;verticalLabelPosition=bottom;labelBackgroundColor=#ffffff;verticalAlign=top;align=center;perimeter=rhombusPerimeter;background=gateway;outlineConnect=0;outline=end;symbol=general;" vertex="1" parent="2TnEpPxarYeY4vQ-YVy6-1">
          <mxGeometry x="860" y="1065" width="50" height="50" as="geometry" />
        </mxCell>
        <mxCell id="l5Q8tlNVOU4_bsxx1pdr-46" style="edgeStyle=orthogonalEdgeStyle;rounded=0;orthogonalLoop=1;jettySize=auto;html=1;entryX=0;entryY=0.5;entryDx=0;entryDy=0;" edge="1" parent="2TnEpPxarYeY4vQ-YVy6-1" source="l5Q8tlNVOU4_bsxx1pdr-24" target="l5Q8tlNVOU4_bsxx1pdr-45">
          <mxGeometry relative="1" as="geometry" />
        </mxCell>
        <mxCell id="l5Q8tlNVOU4_bsxx1pdr-47" value="&lt;meta charset=&quot;utf-8&quot;&gt;&lt;span style=&quot;color: rgb(34, 34, 34); font-family: menlo, monospace; font-size: 11px; font-style: normal; font-weight: 400; letter-spacing: normal; text-align: left; text-indent: 0px; text-transform: none; word-spacing: 0px; background-color: rgb(255, 255, 255); display: inline; float: none;&quot;&gt;error_report[question1]&lt;/span&gt;" style="whiteSpace=wrap;html=1;" vertex="1" parent="2TnEpPxarYeY4vQ-YVy6-1">
          <mxGeometry x="950" y="1070" width="180" height="40" as="geometry" />
        </mxCell>
        <mxCell id="l5Q8tlNVOU4_bsxx1pdr-48" value="&lt;meta charset=&quot;utf-8&quot;&gt;&lt;span style=&quot;color: rgb(34, 34, 34); font-family: menlo, monospace; font-size: 11px; font-style: normal; font-weight: 400; letter-spacing: normal; text-align: left; text-indent: 0px; text-transform: none; word-spacing: 0px; background-color: rgb(255, 255, 255); display: inline; float: none;&quot;&gt;error_report[validation]&lt;/span&gt;" style="whiteSpace=wrap;html=1;" vertex="1" parent="2TnEpPxarYeY4vQ-YVy6-1">
          <mxGeometry x="950" y="977" width="190" height="40" as="geometry" />
        </mxCell>
        <mxCell id="l5Q8tlNVOU4_bsxx1pdr-49" value="" style="edgeStyle=none;rounded=0;orthogonalLoop=1;jettySize=auto;html=1;" edge="1" parent="2TnEpPxarYeY4vQ-YVy6-1" source="l5Q8tlNVOU4_bsxx1pdr-7" target="l5Q8tlNVOU4_bsxx1pdr-26">
          <mxGeometry relative="1" as="geometry" />
        </mxCell>
        <object label="&lt;span style=&quot;color: rgb(34 , 34 , 34) ; font-family: &amp;#34;menlo&amp;#34; , monospace ; font-size: 11px ; text-align: left ; background-color: rgb(255 , 255 , 255)&quot;&gt;Department / Category Page &amp;amp; Products on It&lt;/span&gt;&lt;span style=&quot;color: rgb(34 , 34 , 34) ; font-family: &amp;#34;menlo&amp;#34; , monospace ; font-size: 11px ; text-align: left ; background-color: rgb(255 , 255 , 255)&quot;&gt;&lt;br&gt;     &lt;/span&gt;" id="l5Q8tlNVOU4_bsxx1pdr-7">
          <mxCell style="whiteSpace=wrap;html=1;verticalAlign=middle;" vertex="1" parent="2TnEpPxarYeY4vQ-YVy6-1">
            <mxGeometry x="330" y="760" width="230" height="50" as="geometry" />
          </mxCell>
        </object>
        <mxCell id="UkiM8Ozsqi5m_YK8__kp-0" value="&lt;span style=&quot;color: rgb(34 , 34 , 34) ; font-family: &amp;#34;menlo&amp;#34; , monospace ; font-size: 11px ; text-align: left ; background-color: rgb(255 , 255 , 255)&quot;&gt;New or Missing products&lt;/span&gt;" style="whiteSpace=wrap;html=1;" vertex="1" parent="2TnEpPxarYeY4vQ-YVy6-1">
          <mxGeometry x="592" y="904" width="199" height="40" as="geometry" />
        </mxCell>
      </root>
    </mxGraphModel>
  </diagram>
  <diagram id="VgrC0nZJL8ja25hST7dg" name=" Other Product Data">
    <mxGraphModel dx="670" dy="376" grid="1" gridSize="10" guides="1" tooltips="1" connect="1" arrows="1" fold="1" page="1" pageScale="1" pageWidth="827" pageHeight="1169" math="0" shadow="0">
      <root>
        <mxCell id="I5ljW7YNjoY175kEg15V-0" />
        <mxCell id="I5ljW7YNjoY175kEg15V-1" parent="I5ljW7YNjoY175kEg15V-0" />
      </root>
    </mxGraphModel>
  </diagram>
</mxfile>
